<?xml version="1.0" standalone="no"?>
<!DOCTYPE svg PUBLIC "-//W3C//DTD SVG 20010904//EN"
 "http://www.w3.org/TR/2001/REC-SVG-20010904/DTD/svg10.dtd">
<svg version="1.0" xmlns="http://www.w3.org/2000/svg"
 width="1280.000000pt" height="640.000000pt" viewBox="0 0 1280.000000 640.000000"
 preserveAspectRatio="xMidYMid meet">
<metadata>
Created by potrace 1.15, written by Peter Selinger 2001-2017
</metadata>
<g transform="translate(0.000000,640.000000) scale(0.100000,-0.100000)"
fill="#000000" stroke="none">
<path d="M7062 6023 c-56 -50 -346 -397 -597 -715 l-170 -216 -57 29 c-76 38
-177 58 -360 69 -204 13 -294 25 -360 50 -62 23 -58 19 -198 170 -244 261
-378 332 -660 346 -191 10 -337 -31 -388 -109 -26 -39 -27 -47 -25 -153 2
-130 16 -168 67 -189 18 -8 38 -20 45 -29 15 -18 77 -303 68 -312 -3 -3 -164
-2 -356 4 -253 8 -357 14 -377 24 -20 10 -31 28 -45 73 -23 76 -68 131 -117
144 -70 19 -187 32 -392 42 -265 13 -389 31 -448 65 -25 15 -82 65 -126 112
-224 235 -260 268 -327 300 -78 37 -289 93 -439 117 -58 8 -145 22 -195 31
-169 27 -270 35 -565 40 l-295 6 -50 -33 c-61 -42 -112 -107 -121 -156 -5 -28
-2 -45 14 -73 12 -19 31 -55 43 -80 12 -25 25 -52 29 -60 4 -8 22 -19 41 -24
19 -6 37 -15 41 -20 14 -19 27 -76 79 -326 27 -135 65 -312 84 -395 18 -82 36
-166 38 -185 3 -19 15 -70 26 -113 11 -43 21 -95 22 -115 2 -20 6 -42 11 -48
4 -6 13 -57 19 -114 6 -57 18 -122 25 -143 8 -22 14 -41 14 -42 0 -2 -17 -6
-37 -10 -21 -4 -69 -18 -108 -32 -67 -25 -83 -26 -360 -33 l-290 -6 -85 -31
c-185 -67 -200 -79 -162 -128 11 -14 28 -48 38 -76 10 -27 24 -55 32 -61 9 -8
91 -13 235 -16 198 -3 242 -1 402 22 99 13 218 34 265 44 47 11 114 23 150 27
36 4 99 13 140 21 41 7 76 12 76 11 1 -1 11 -56 23 -122 16 -92 18 -121 8
-127 -7 -4 -45 -22 -86 -39 -139 -58 -451 -260 -487 -314 -17 -27 -27 -31
-204 -79 -177 -49 -232 -71 -284 -118 -95 -82 -115 -181 -55 -271 32 -48 31
-48 141 -62 l48 -6 -14 -27 c-26 -51 -67 -197 -88 -312 -15 -85 -21 -157 -21
-275 0 -308 64 -540 231 -827 28 -49 46 -88 42 -88 -5 0 -11 4 -15 10 -4 6
-15 6 -31 0 -14 -6 -48 -10 -76 -10 -43 0 -50 -2 -45 -17 13 -48 13 -48 -36
-51 -31 -2 -47 -7 -44 -15 6 -20 47 -25 205 -26 94 -1 152 -5 152 -11 0 -6
-79 -10 -217 -10 -202 0 -260 -7 -240 -27 5 -4 112 -9 240 -11 128 -2 239 -5
247 -8 46 -16 -41 -24 -262 -24 -225 0 -280 -6 -232 -24 9 -3 66 -6 127 -7 62
-1 137 -4 167 -8 101 -13 11 -24 -146 -18 -107 4 -146 2 -160 -7 -9 -7 -14
-17 -11 -23 8 -12 196 -25 325 -23 l92 2 0 -26 c0 -22 -5 -26 -27 -26 -38 0
-56 -14 -58 -42 -1 -20 -8 -24 -56 -28 -49 -5 -54 -7 -54 -30 0 -23 3 -24 50
-21 44 2 51 -1 60 -21 15 -34 52 -48 131 -48 89 0 134 -14 134 -42 0 -19 2
-19 25 6 26 28 49 28 38 0 -5 -13 2 -12 35 5 51 26 72 27 79 1 5 -17 7 -18 27
-5 16 10 69 13 246 11 350 -4 360 -5 450 -20 47 -7 87 -11 90 -7 5 7 35 11 85
11 33 1 45 1 140 5 44 1 92 6 106 9 14 4 43 1 66 -7 27 -9 47 -11 57 -5 25 14
77 13 86 -2 7 -11 12 -10 26 4 15 16 34 18 133 16 154 -4 151 -4 151 24 0 29
16 42 33 28 7 -6 37 -6 77 -1 36 5 99 8 140 7 41 -1 81 1 88 6 28 17 8 26 -62
26 -78 0 -106 6 -106 22 0 5 55 9 138 8 132 -1 182 4 182 20 0 13 -101 20
-306 20 -111 0 -230 3 -265 7 l-64 8 45 5 c25 3 284 4 575 3 543 -3 687 9 255
21 -315 9 -460 17 -460 28 0 4 100 8 222 8 226 0 283 12 113 24 -100 7 -357
32 -365 35 -3 2 6 6 20 10 14 3 120 3 235 0 116 -4 228 -8 250 -9 64 -1 201
14 189 22 -14 10 -134 17 -483 28 -162 6 -297 13 -300 16 -22 21 50 25 385 19
230 -4 364 -3 368 3 9 16 -41 21 -306 32 -306 12 -383 19 -371 31 14 14 131
15 504 6 212 -5 339 -5 343 1 3 6 -55 12 -147 16 -390 16 -637 30 -637 37 0
27 35 29 351 19 400 -12 706 -13 713 -1 7 11 -120 21 -283 21 -162 0 -591 18
-667 28 l-54 7 41 64 c47 75 136 251 169 336 13 33 26 64 31 69 8 9 189 19
304 17 80 -1 106 9 86 33 -12 14 -7 16 43 16 51 0 57 2 66 25 7 19 17 25 39
25 15 0 34 -7 41 -15 11 -13 15 -13 33 0 14 10 45 15 87 15 62 0 102 12 88 25
-6 6 -391 23 -568 25 -57 1 -78 4 -65 10 11 5 161 9 333 9 193 1 312 5 310 10
-2 6 -120 11 -285 13 -155 2 -286 7 -290 12 -4 5 43 57 106 117 l114 108 61 6
c61 7 900 -7 1531 -25 187 -5 610 -14 940 -20 330 -5 764 -14 965 -20 651 -17
714 -15 762 25 15 13 55 40 89 61 l62 37 226 -6 c176 -6 228 -10 236 -21 9
-12 13 -12 30 0 26 19 55 18 55 -2 0 -14 2 -14 16 -3 20 16 96 13 109 -5 9
-11 12 -11 23 0 13 14 54 19 65 8 3 -3 61 -6 129 -5 68 0 149 -3 181 -7 57 -9
60 -11 138 -95 72 -77 197 -187 213 -187 4 0 24 -11 44 -25 l37 -25 -68 0
c-38 0 -233 7 -435 16 -400 17 -966 23 -978 11 -4 -4 -4 -10 -1 -14 4 -3 181
-10 394 -14 573 -12 1111 -34 1174 -49 l34 -8 -40 -1 c-22 0 -209 6 -415 14
-206 8 -438 15 -515 15 -77 0 -147 1 -155 1 -116 8 -360 8 -360 1 0 -19 36
-22 324 -33 269 -9 293 -12 320 -31 27 -19 56 -22 425 -39 218 -10 423 -20
456 -21 l60 -3 37 -100 c48 -128 149 -324 204 -395 68 -88 262 -272 352 -334
45 -32 82 -60 82 -63 0 -3 -116 -2 -257 1 -142 4 -274 3 -293 -2 -33 -8 -30
-9 35 -15 39 -4 183 -9 321 -13 216 -5 256 -9 290 -25 l39 -19 -155 5 c-85 3
-203 8 -262 10 -63 3 -109 1 -113 -4 -9 -15 36 -19 330 -32 369 -16 379 -32
15 -24 -680 13 -1122 26 -1295 35 -122 7 -192 7 -203 0 -14 -8 -14 -10 -2 -10
8 0 107 -7 220 -16 113 -8 286 -17 385 -19 723 -20 936 -28 975 -35 30 -6 11
-7 -61 -4 -73 4 -109 2 -114 -5 -3 -6 -11 -9 -16 -6 -13 9 -225 9 -238 0 -7
-3 -18 -2 -26 5 -9 8 -15 8 -20 0 -3 -6 -11 -7 -17 -4 -15 9 -338 31 -338 23
0 -27 109 -34 1035 -69 685 -25 1151 -40 1251 -40 82 0 131 17 109 39 -10 10
-105 24 -243 36 -79 8 -92 24 -29 37 61 13 147 59 370 201 102 65 176 142 296
311 147 206 221 376 272 616 31 143 33 477 6 615 -31 154 -102 353 -158 446
-28 46 -55 95 -60 107 -13 33 -111 161 -187 244 -61 67 -64 72 -59 112 3 22
11 94 18 159 8 67 18 117 24 117 5 0 19 -7 29 -15 35 -27 59 -18 90 31 20 32
42 52 72 64 51 22 83 64 67 89 -25 40 -216 147 -369 206 -286 111 -583 170
-937 185 -115 5 -212 11 -215 15 -3 3 -1 33 5 68 10 58 9 65 -14 111 -13 27
-29 75 -34 107 -11 67 -20 91 -53 136 -13 18 -27 54 -31 80 -16 111 -68 180
-173 227 -23 10 -44 27 -47 37 -9 28 3 57 26 64 30 10 19 37 -21 57 -98 49
-269 -10 -187 -65 12 -8 20 -17 17 -20 -6 -6 -552 8 -1085 28 -214 8 -429 15
-477 15 l-88 0 -19 38 c-21 39 -63 77 -119 106 -25 13 -54 17 -110 15 -42 -1
-140 3 -217 10 -77 6 -185 11 -240 9 l-100 -3 -9 -94 -9 -94 -186 8 -186 7
-50 38 c-27 21 -114 95 -193 164 -79 69 -160 135 -180 147 -38 23 -166 123
-214 167 l-26 24 35 74 c29 60 33 78 26 101 -17 52 -45 41 -96 -37 -40 -60
-50 -69 -66 -61 -46 25 -46 36 -7 139 20 54 43 126 51 161 12 49 27 78 70 133
30 38 55 78 55 88 0 19 -36 70 -50 70 -4 0 -17 -8 -28 -17z m38 -68 c0 -8 -4
-15 -9 -15 -13 0 -22 16 -14 24 11 11 23 6 23 -9z m-121 -119 c-37 -52 -223
-267 -260 -301 l-33 -30 29 40 c42 59 202 254 243 297 43 45 55 41 21 -6z
m-6005 -58 c-32 -35 -66 -66 -74 -70 -8 -4 -61 -7 -118 -7 l-102 -1 6 28 c20
87 69 108 253 111 l94 1 -59 -62z m262 -13 c39 -19 91 -52 115 -73 l44 -39
-44 -22 -43 -22 -36 25 c-46 31 -151 80 -159 73 -2 -3 9 -13 27 -22 48 -25 32
-27 -39 -5 -62 20 -131 27 -117 13 4 -5 24 -13 44 -20 l37 -12 -55 2 c-47 2
-55 5 -58 23 -7 52 109 130 178 119 19 -3 67 -21 106 -40z m189 15 c74 -36
195 -172 195 -219 0 -5 -22 -1 -50 11 -37 15 -56 31 -74 62 -27 46 -91 110
-151 151 l-40 27 38 -5 c21 -4 58 -16 82 -27z m141 -9 c36 -22 121 -117 147
-164 18 -34 23 -77 8 -77 -19 0 -73 54 -105 104 -18 28 -54 75 -80 104 -44 48
-46 52 -24 52 12 0 37 -9 54 -19z m102 -15 c64 -33 182 -189 182 -241 0 -19
-14 -19 -31 1 -7 8 -25 22 -40 29 -14 8 -29 26 -33 39 -5 20 -60 100 -118 174
-14 17 6 16 40 -2z m117 -15 c80 -51 134 -122 165 -217 24 -72 22 -106 -3 -57
-9 17 -27 40 -40 50 -13 10 -40 45 -62 78 -21 33 -53 78 -71 99 -32 37 -43 66
-26 66 4 0 21 -9 37 -19z m-335 -95 c0 -6 -20 10 -45 34 -25 24 -45 49 -45 54
0 6 20 -10 45 -34 25 -24 45 -49 45 -54z m485 65 c44 -20 85 -63 115 -120 25
-50 49 -146 40 -161 -10 -16 -77 64 -136 164 -26 45 -58 93 -72 109 -24 25
-24 27 -6 27 10 0 37 -9 59 -19z m150 -27 c89 -20 135 -87 135 -197 0 -37 -3
-67 -6 -67 -3 0 -27 18 -52 41 -30 26 -54 59 -68 92 -11 29 -33 71 -47 94 -32
50 -33 56 -9 49 9 -3 31 -8 47 -12z m-1342 -11 c-7 -2 -21 -2 -30 0 -10 3 -4
5 12 5 17 0 24 -2 18 -5z m169 -5 c-9 -9 -15 -9 -24 0 -9 9 -7 12 12 12 19 0
21 -3 12 -12z m3900 -35 c35 -15 56 -38 40 -46 -4 -2 -38 14 -77 35 -59 33
-65 38 -35 33 19 -3 52 -13 72 -22z m2086 -39 c-24 -58 -48 -82 -48 -47 0 21
58 118 66 110 3 -2 -6 -31 -18 -63z m-5732 46 c15 -6 24 -13 22 -16 -3 -3 -21
2 -39 10 -39 16 -24 21 17 6z m3444 6 c0 -2 -23 -18 -50 -36 -28 -18 -55 -41
-61 -51 -8 -15 -21 -19 -71 -19 -53 0 -59 -2 -48 -15 10 -13 9 -15 -10 -15
-20 0 -22 4 -17 36 12 74 62 104 175 104 45 0 82 -2 82 -4z m-2266 -110 c80
-82 85 -109 42 -226 -18 -49 -64 -120 -77 -120 -5 0 -15 22 -23 49 -8 27 -20
60 -28 73 -8 15 -13 62 -13 138 0 63 -4 130 -9 149 l-9 35 34 -24 c19 -14 56
-47 83 -74z m2431 54 c75 -37 183 -115 184 -132 1 -5 -6 -8 -14 -8 -8 0 -29
-7 -48 -16 -33 -16 -34 -16 -95 24 -97 62 -284 115 -257 72 3 -5 -1 -10 -9
-10 -20 0 -20 10 0 39 18 25 107 71 139 71 10 0 56 -18 100 -40z m-3718 5 c81
-18 144 -52 158 -83 5 -12 16 -22 23 -22 25 0 99 -88 172 -205 92 -147 172
-235 239 -264 77 -33 159 -40 546 -51 694 -20 846 -27 858 -39 30 -30 -13 -31
-589 -21 -571 10 -745 19 -814 42 -94 30 -187 125 -292 299 -111 184 -215 280
-326 301 -25 4 -100 12 -165 17 -118 9 -146 18 -132 42 11 16 228 5 322 -16z
m73 15 c13 -8 13 -10 -2 -10 -9 0 -20 5 -23 10 -8 13 5 13 25 0z m324 -23 c46
-49 127 -152 157 -200 14 -23 49 -67 77 -98 29 -31 52 -61 51 -65 0 -5 -15
-21 -34 -37 l-33 -27 -32 26 c-17 15 -59 67 -92 116 -33 50 -62 87 -65 84 -9
-9 91 -168 135 -213 24 -25 40 -48 37 -52 -12 -11 -95 90 -150 183 -97 165
-180 269 -180 227 0 -19 -15 -23 -21 -7 -8 21 29 63 71 82 42 18 43 18 79 -19z
m3482 7 c28 -19 54 -63 54 -94 0 -27 -8 -25 -52 13 -41 35 -68 97 -42 97 8 0
26 -7 40 -16z m-3741 -4 c3 -5 2 -10 -4 -10 -5 0 -13 5 -16 10 -3 6 -2 10 4
10 5 0 13 -4 16 -10z m93 -1 c-2 -6 -8 -10 -13 -10 -5 0 -11 4 -13 10 -2 6 4
11 13 11 9 0 15 -5 13 -11z m5641 -38 c-6 -18 -14 -30 -17 -27 -2 3 1 19 8 36
16 40 23 33 9 -9z m-5339 -16 c16 -8 40 -30 54 -47 30 -40 96 -177 96 -198 -1
-20 -68 54 -116 128 -21 31 -48 70 -61 85 -38 47 -27 60 27 32z m3507 -47 c28
-24 61 -55 73 -70 20 -26 21 -32 10 -83 -7 -33 -17 -55 -25 -55 -39 0 -126
141 -140 228 -7 41 -6 43 11 33 11 -5 42 -29 71 -53z m-3375 5 c20 -21 41 -48
47 -60 16 -32 51 -185 45 -195 -7 -10 -44 20 -44 35 0 5 -19 50 -41 101 -70
154 -71 156 -56 156 7 0 29 -17 49 -37z m88 0 c38 -43 86 -140 106 -215 20
-76 19 -80 -18 -76 -30 3 -34 7 -42 43 -4 22 -28 91 -52 153 -24 62 -44 117
-44 122 0 19 18 9 50 -27z m2625 27 c3 -5 -1 -10 -10 -10 -9 0 -13 5 -10 10 3
6 8 10 10 10 2 0 7 -4 10 -10z m338 -67 c41 -23 90 -63 62 -52 -47 18 -214
106 -215 111 0 10 91 -26 153 -59z m2047 37 c0 -5 -7 -7 -15 -4 -8 4 -15 8
-15 10 0 2 7 4 15 4 8 0 15 -4 15 -10z m270 -10 c0 -5 -4 -10 -10 -10 -5 0
-10 5 -10 10 0 6 5 10 10 10 6 0 10 -4 10 -10z m-5150 -46 c24 -39 90 -211 90
-237 0 -4 -13 -7 -29 -7 -27 0 -32 6 -51 56 -26 70 -60 193 -60 216 0 31 19
20 50 -28z m2798 -5 c45 -21 82 -42 82 -48 0 -8 -193 78 -208 93 -11 12 52
-11 126 -45z m2152 42 c0 -19 -47 -64 -59 -57 -8 5 -6 16 9 37 20 28 50 40 50
20z m-4813 -111 c28 -58 54 -119 58 -136 5 -28 3 -32 -20 -36 -40 -8 -60 18
-88 112 -33 110 -40 147 -32 160 14 23 32 1 82 -100z m-939 64 c23 -20 47 -45
54 -57 6 -13 -13 -1 -43 27 -30 27 -58 53 -63 58 -6 5 -6 8 0 8 6 0 29 -16 52
-36z m267 -8 c31 -35 81 -116 70 -116 -3 0 -26 32 -51 71 -25 39 -48 68 -51
65 -3 -2 14 -36 37 -76 24 -39 40 -73 37 -76 -3 -3 -13 9 -23 28 -9 18 -35 59
-57 92 -36 54 -37 58 -16 51 13 -3 38 -21 54 -39z m757 17 c14 -16 34 -43 43
-62 17 -34 65 -168 65 -182 0 -14 -52 -19 -78 -7 -21 10 -30 27 -45 78 -21 75
-34 200 -20 200 5 0 21 -12 35 -27z m4608 -2 c0 -5 -7 -12 -16 -15 -24 -9 -28
-7 -14 9 14 17 30 20 30 6z m-1770 -21 c10 -5 55 -57 99 -114 44 -58 101 -121
125 -142 l45 -38 -39 -34 c-22 -18 -40 -40 -40 -48 0 -28 -33 -13 -91 43 -73
70 -144 172 -130 186 6 6 12 9 14 6 2 -2 19 -25 37 -51 18 -27 37 -48 42 -48
17 0 -34 78 -95 145 -64 71 -90 82 -36 16 18 -23 29 -44 25 -48 -4 -5 -13 -1
-19 8 -39 52 -58 71 -63 66 -4 -3 4 -20 16 -37 13 -19 19 -37 15 -48 -10 -27
-67 41 -63 76 6 52 104 91 158 62z m1985 -14 c11 -5 23 -9 28 -8 11 3 9 -16
-3 -23 -10 -6 -100 40 -100 51 0 6 51 -7 75 -20z m-2330 -11 c118 -31 218
-116 294 -250 81 -142 158 -214 257 -240 76 -21 324 -33 324 -16 0 6 15 12 33
12 31 1 31 2 -8 10 -55 11 -286 39 -325 39 -32 0 -32 1 -25 37 9 52 31 90 61
110 22 14 35 15 102 5 95 -15 304 -31 395 -32 73 0 78 -6 48 -48 -10 -15 -22
-38 -26 -51 -7 -23 -8 -24 -114 -17 -98 7 -314 28 -414 42 -64 8 -24 -12 48
-25 33 -6 147 -18 254 -26 107 -9 203 -21 214 -27 20 -10 20 -11 2 -24 -10 -8
-39 -14 -64 -15 -35 0 -41 -2 -26 -9 25 -11 96 -12 111 -2 6 4 11 18 10 32 -1
23 3 25 54 28 30 2 116 0 190 -4 106 -6 126 -9 95 -15 -22 -4 -78 -9 -125 -9
-59 -2 -77 -4 -60 -10 19 -6 9 -8 -37 -9 -116 -2 -74 -19 65 -26 132 -7 188
-13 317 -34 33 -5 236 -15 450 -20 215 -6 489 -16 610 -21 121 -6 417 -14 657
-18 240 -4 440 -10 443 -14 4 -4 5 -13 3 -20 -4 -10 -41 -12 -179 -6 -96 4
-361 14 -589 23 -228 9 -521 20 -650 25 -129 6 -480 19 -780 30 -887 32 -1067
43 -1130 68 -71 28 -131 94 -267 292 -105 152 -181 195 -373 211 -132 12 -162
18 -168 38 -4 12 17 13 129 8 74 -3 161 -13 194 -22z m-2047 -132 c23 -14 42
-27 42 -29 0 -3 -7 -16 -16 -29 -16 -25 -18 -25 -160 -25 -79 0 -144 3 -144 6
0 3 15 24 34 46 19 22 47 69 63 104 l27 64 56 -56 c30 -31 74 -67 98 -81z
m2817 -90 c25 -18 27 -23 16 -37 -21 -25 -70 -19 -146 18 -84 40 -120 75 -112
108 4 13 12 45 19 71 l13 49 90 -94 c49 -52 103 -104 120 -115z m-4537 127 l0
-25 -8 25 c-4 14 -8 34 -8 45 l-1 20 9 -20 c5 -11 8 -31 8 -45z m5966 34 c10
-4 16 -18 16 -35 0 -16 6 -31 13 -33 6 -2 31 -9 55 -15 29 -8 83 -44 170 -114
294 -237 363 -297 338 -297 -3 0 -38 4 -78 10 -40 5 -275 16 -523 25 -247 9
-455 18 -461 20 -6 2 -17 25 -23 51 l-12 47 84 86 c46 47 96 103 111 123 19
25 58 53 124 87 94 49 145 61 186 45z m-5594 -44 c0 -5 -2 -10 -4 -10 -3 0 -8
5 -11 10 -3 6 -1 10 4 10 6 0 11 -4 11 -10z m5986 -121 c81 -67 211 -172 289
-235 79 -62 146 -118 150 -123 10 -17 -8 -12 -35 9 -14 11 -29 20 -34 20 -5 0
-23 15 -40 33 -17 17 -117 103 -221 189 -227 189 -272 228 -263 228 4 0 73
-54 154 -121z m-125 64 c10 -12 5 -11 -18 6 -18 12 -33 24 -33 27 0 9 37 -15
51 -33z m-5519 -85 c26 -27 43 -48 38 -48 -20 0 -102 84 -121 125 l-20 40 28
-35 c15 -19 49 -56 75 -82z m3443 -27 c33 -42 76 -84 95 -93 35 -18 45 -38 23
-45 -17 -6 -116 89 -154 148 -17 27 -35 49 -40 49 -17 0 66 -123 120 -177 29
-30 44 -50 33 -44 -61 33 -193 228 -191 285 0 23 -8 32 114 -123z m-2186 74
c51 -8 96 -16 99 -19 2 -3 -1 -12 -7 -20 -9 -11 -20 -12 -44 -5 -18 5 -63 9
-102 9 -131 0 -168 15 -130 53 11 12 23 13 52 6 21 -6 80 -16 132 -24z m-874
-15 c55 -5 137 -9 182 -10 84 0 104 -8 77 -31 -23 -19 -44 -64 -44 -96 l-1
-28 -15 28 c-13 24 -20 27 -70 27 -31 0 -53 4 -49 9 3 5 30 7 60 4 38 -4 55
-2 55 6 0 6 -16 11 -39 11 -21 0 -59 3 -85 6 -38 6 -46 4 -46 -10 0 -14 -18
-16 -152 -17 -84 0 -147 -3 -140 -6 17 -7 5 -23 -19 -23 -24 0 -25 26 -4 78
26 61 49 74 125 67 36 -3 110 -10 165 -15z m-1057 -60 l0 -25 -8 25 c-4 14 -8
36 -8 50 l0 25 8 -25 c4 -14 8 -36 8 -50z m417 33 c26 -39 32 -59 15 -48 -11
7 -53 85 -46 85 3 0 17 -17 31 -37z m1900 15 c4 -3 1 -24 -5 -45 -7 -21 -14
-44 -16 -50 -2 -9 -28 -13 -83 -13 l-80 0 -35 44 c-38 46 -43 61 -23 70 17 8
234 2 242 -6z m-657 -17 c79 -5 145 -11 148 -14 3 -2 -5 -21 -17 -41 l-21 -36
-71 0 c-40 0 -94 7 -121 15 -27 8 -81 14 -120 14 l-71 -2 74 -8 c41 -5 76 -11
79 -14 3 -3 -45 -5 -106 -5 -92 0 -113 -3 -120 -16 -16 -29 -24 3 -9 38 16 37
43 64 72 71 31 7 127 7 283 -2z m908 -19 c44 -22 54 -37 54 -79 0 -20 -4 -24
-17 -18 -10 4 -73 9 -140 12 l-123 6 0 35 c0 61 23 75 110 70 50 -3 89 -12
116 -26z m-1895 -32 c28 -22 47 -40 41 -40 -11 0 -87 55 -97 69 -12 20 5 11
56 -29z m1301 26 c71 -16 103 -37 124 -79 l17 -32 -26 28 c-29 30 -67 36 -67
11 0 -14 -12 -15 -100 -9 -71 5 -100 4 -100 -4 0 -6 14 -11 32 -11 23 0 29 -3
21 -11 -6 -6 -23 -9 -39 -7 -27 3 -29 6 -27 42 2 22 10 50 18 63 18 27 59 30
147 9z m2862 -6 c82 -5 151 -11 153 -14 15 -15 -73 -18 -232 -9 -183 11 -220
17 -209 35 4 6 33 7 73 4 36 -4 133 -11 215 -16z m-1179 -10 c-3 -5 -10 -10
-16 -10 -5 0 -9 5 -9 10 0 6 7 10 16 10 8 0 12 -4 9 -10z m1514 -21 c43 -15
39 -29 -6 -18 -21 5 -59 9 -85 9 -27 0 -48 5 -48 10 0 13 99 13 139 -1z m1241
-40 c0 -14 -5 -11 -31 17 l-24 27 28 -18 c15 -9 27 -21 27 -26z m-5388 -7 c9
-9 9 -15 -1 -24 -10 -11 -14 -10 -22 5 -6 10 -22 17 -42 17 -18 0 -39 5 -47
11 -11 8 0 9 43 6 32 -2 63 -9 69 -15z m4105 3 c88 -17 186 -61 191 -87 3 -15
-15 -16 -215 -11 -120 3 -220 7 -222 9 -11 9 28 80 49 91 33 17 102 16 197 -2z
m-2687 -31 c69 -3 140 -10 158 -16 29 -9 52 -33 52 -56 0 -6 -91 -7 -231 -4
-173 4 -230 2 -225 -7 4 -6 33 -11 64 -12 92 -1 110 -17 20 -18 -93 -1 -108 4
-108 36 0 13 -7 37 -15 52 -8 16 -11 32 -7 36 4 4 43 4 87 1 44 -3 136 -8 205
-12z m-1477 -1 c-13 -2 -33 -2 -45 0 -13 2 -3 4 22 4 25 0 35 -2 23 -4z m1044
1 c-3 -3 -12 -4 -19 -1 -8 3 -5 6 6 6 11 1 17 -2 13 -5z m-1837 -64 c0 -5 -7
-10 -16 -10 -8 0 -12 5 -9 10 3 6 10 10 16 10 5 0 9 -4 9 -10z m449 -31 c54
-34 95 -41 326 -57 l110 -7 -115 -3 c-63 -1 -146 2 -185 8 -71 11 -163 48
-185 75 -19 22 -7 18 49 -16z m3121 10 c0 -6 -4 -7 -10 -4 -5 3 -10 11 -10 16
0 6 5 7 10 4 6 -3 10 -11 10 -16z m-3686 -41 c4 -17 2 -28 -4 -28 -5 0 -10 9
-10 19 0 11 -3 28 -6 38 -5 12 -4 15 3 8 6 -5 13 -22 17 -37z m4296 32 c23 -7
22 -8 -10 -8 -19 0 -44 3 -55 8 -17 7 -15 9 10 8 17 0 41 -4 55 -8z m-4160
-10 c0 -5 -7 -10 -16 -10 -8 0 -12 5 -9 10 3 6 10 10 16 10 5 0 9 -4 9 -10z
m7638 -6 c44 -31 20 -46 -32 -19 -15 8 -35 15 -42 15 -8 0 -14 5 -14 10 0 16
63 12 88 -6z m-231 -108 c-3 -63 -10 -123 -16 -133 -7 -13 -9 16 -5 102 6 124
9 145 20 145 4 0 4 -51 1 -114z m-4522 84 c44 -6 40 -7 -40 -8 -49 0 -130 3
-180 7 l-90 8 130 1 c72 0 153 -3 180 -8z m108 -7 c-7 -2 -21 -2 -30 0 -10 3
-4 5 12 5 17 0 24 -2 18 -5z m287 -3 c67 -6 59 -7 -65 -8 -77 -1 -147 3 -155
8 -17 11 102 11 220 0z m525 -10 c83 -10 -163 -11 -295 0 -87 6 -81 7 70 7 91
1 192 -3 225 -7z m-2707 -7 c-16 -2 -40 -2 -55 0 -16 2 -3 4 27 4 30 0 43 -2
28 -4z m545 -10 c-7 -2 -19 -2 -25 0 -7 3 -2 5 12 5 14 0 19 -2 13 -5z m197
-3 c19 -6 12 -8 -30 -9 -30 0 -62 4 -70 9 -19 12 62 12 100 0z m107 -45 c2
-40 2 -40 -9 -10 -6 17 -16 36 -22 44 -8 10 -6 13 9 10 16 -3 20 -13 22 -44z
m100 -2 c-10 -32 -13 -34 -15 -15 -4 28 4 52 17 52 5 0 4 -16 -2 -37z m743 7
c0 -6 -21 -8 -57 -4 -78 9 -79 14 -5 14 35 0 62 -4 62 -10z m155 0 c27 -11
-59 -11 -95 0 -20 6 -14 8 25 8 28 0 59 -3 70 -8z m6637 -72 c-3 -16 -8 -28
-13 -28 -14 0 -16 69 -2 100 8 20 20 -36 15 -72z m-6372 62 c0 -5 -4 -10 -10
-10 -5 0 -10 5 -10 10 0 6 5 10 10 10 6 0 10 -4 10 -10z m240 -10 c0 -5 -4
-10 -10 -10 -5 0 -10 5 -10 10 0 6 5 10 10 10 6 0 10 -4 10 -10z m100 -10 c0
-17 -2 -19 -14 -8 -14 13 -12 28 5 28 5 0 9 -9 9 -20z m3697 14 c-3 -3 -12 -4
-19 -1 -8 3 -5 6 6 6 11 1 17 -2 13 -5z m63 -4 c0 -5 -2 -10 -4 -10 -3 0 -8 5
-11 10 -3 6 -1 10 4 10 6 0 11 -4 11 -10z m371 -5 c32 -14 29 -14 -81 -14 -66
-1 -121 4 -130 10 -11 8 -7 10 20 6 19 -2 44 -1 55 4 33 13 100 10 136 -6z
m-4081 -61 c0 -41 -4 -63 -10 -59 -15 9 -10 125 6 125 2 0 4 -30 4 -66z m768
39 c-16 -2 -40 -2 -55 0 -16 2 -3 4 27 4 30 0 43 -2 28 -4z m3670 -5 c-3 -8
-27 -14 -61 -16 -46 -2 -57 0 -57 13 0 12 13 15 61 15 44 0 60 -3 57 -12z
m-3471 -4 c-3 -3 -12 -4 -19 -1 -8 3 -5 6 6 6 11 1 17 -2 13 -5z m3813 -9 c28
-17 -10 -27 -84 -20 -73 7 -85 12 -68 29 8 10 134 2 152 -9z m-8476 -37 c3
-16 2 -28 -3 -28 -5 0 -11 16 -13 35 -5 39 6 34 16 -7z m1254 35 c-10 -2 -26
-2 -35 0 -10 3 -2 5 17 5 19 0 27 -2 18 -5z m7535 -10 c19 -11 -9 -23 -57 -23
-57 0 -116 16 -116 32 0 9 155 1 173 -9z m314 -6 c12 -12 -10 -27 -39 -27 -32
0 -138 31 -138 40 0 7 169 -6 177 -13z m-1544 -1 c6 -15 -1 -26 -15 -26 -4 0
-8 9 -8 20 0 23 15 27 23 6z m1340 7 c-7 -2 -19 -2 -25 0 -7 3 -2 5 12 5 14 0
19 -2 13 -5z m515 -13 c52 0 37 -17 -23 -25 -55 -6 -119 6 -140 27 -7 7 13 9
60 4 39 -3 85 -6 103 -6z m-8153 -10 c3 -5 -3 -10 -14 -10 -12 0 -21 5 -21 10
0 6 6 10 14 10 8 0 18 -4 21 -10z m60 0 c3 -5 -1 -10 -10 -10 -9 0 -13 5 -10
10 3 6 8 10 10 10 2 0 7 -4 10 -10z m70 0 c3 -5 -3 -10 -15 -10 -12 0 -18 5
-15 10 3 6 10 10 15 10 5 0 12 -4 15 -10z m742 -32 c-3 -8 -6 -5 -6 6 -1 11 2
17 5 13 3 -3 4 -12 1 -19z m4610 -29 c1 -24 0 -26 -4 -9 -3 14 -10 31 -16 39
-10 11 -9 13 3 9 9 -3 16 -18 17 -39z m1723 21 c12 -8 12 -10 -5 -10 -11 0
-27 5 -35 10 -12 8 -12 10 5 10 11 0 27 -5 35 -10z m-6772 -7 c-10 -2 -28 -2
-40 0 -13 2 -5 4 17 4 22 1 32 -1 23 -4z m6112 -14 c17 -5 3 -8 -46 -8 -101
-1 -224 10 -224 21 0 10 230 -1 270 -13z m985 11 c25 -11 -170 -11 -240 0 -38
5 -17 7 85 8 74 0 144 -3 155 -8z m-8775 -37 c0 -32 -5 -28 -14 10 -4 19 -3
26 4 22 5 -3 10 -18 10 -32z m2027 -75 c-2 -24 -4 -7 -4 37 0 44 2 63 4 43 2
-21 2 -57 0 -80z m3180 65 c-3 -10 -5 -2 -5 17 0 19 2 27 5 18 2 -10 2 -26 0
-35z m3088 27 c132 -6 449 -17 705 -25 256 -8 491 -18 523 -21 63 -7 70 -14
86 -83 8 -38 7 -43 -12 -50 -12 -4 -116 -4 -232 0 -115 5 -376 13 -580 19
-203 5 -484 15 -623 22 l-252 12 6 48 c5 36 2 54 -10 73 l-17 26 83 -6 c46 -3
191 -10 323 -15z m1045 -1 c16 -10 -308 -1 -375 10 -22 4 50 5 160 3 110 -2
207 -8 215 -13z m-4890 1 c12 -8 9 -10 -12 -10 -16 0 -28 5 -28 10 0 13 20 13
40 0z m-2339 -37 c-9 -16 -10 -14 -11 12 0 21 3 26 11 18 8 -8 8 -16 0 -30z
m2407 30 c-10 -2 -26 -2 -35 0 -10 3 -2 5 17 5 19 0 27 -2 18 -5z m5254 -49
c36 -6 38 -8 51 -68 8 -33 12 -65 9 -69 -7 -14 -145 4 -164 21 -10 8 -18 27
-18 42 0 14 -7 35 -15 46 -8 10 -15 22 -15 27 0 8 100 9 152 1z m-2182 -45 c0
-11 -4 -17 -10 -14 -5 3 -10 15 -10 26 0 11 5 17 10 14 6 -3 10 -15 10 -26z
m248 -103 l3 -129 -68 6 c-37 4 -98 7 -135 7 l-68 0 0 84 c0 47 5 88 10 91 6
4 17 22 25 41 l14 34 108 -3 108 -2 3 -129z m-1108 49 c0 -19 -4 -35 -10 -35
-11 0 -13 30 -4 54 10 25 14 19 14 -19z m696 -2 c-10 -10 -19 5 -10 18 6 11 8
11 12 0 2 -7 1 -15 -2 -18z m-5591 7 c-3 -5 -12 -7 -20 -3 -21 7 -19 13 6 13
11 0 18 -4 14 -10z m5663 -13 c3 -15 0 -16 -22 -6 -32 15 -34 32 -4 27 13 -2
24 -11 26 -21z m722 -17 c118 -5 348 -14 510 -19 807 -28 889 -33 906 -52 25
-28 43 -89 44 -147 l0 -53 -29 22 c-30 22 -59 22 -297 3 -57 -4 -73 -2 -83 10
-18 21 -159 23 -167 2 -7 -19 -142 -9 -167 13 -27 23 -158 28 -189 7 -31 -22
-103 -20 -157 4 -56 26 -197 29 -187 5 4 -12 -3 -15 -33 -15 -71 0 -130 12
-125 25 4 8 -12 14 -48 18 -85 11 -118 9 -118 -7 0 -30 -72 -36 -92 -7 -8 11
-28 21 -48 23 l-33 3 2 80 c1 43 5 83 7 87 6 10 40 10 304 -2z m-791 -48 c1
-7 -3 -10 -9 -7 -5 3 -10 18 -9 33 0 24 1 25 9 7 5 -11 9 -26 9 -33z m2438
-27 c15 -10 26 -37 37 -84 26 -115 28 -111 -61 -111 -43 0 -83 4 -89 8 -17 12
-41 83 -49 145 l-7 57 74 0 c49 0 81 -5 95 -15z m-6442 -45 c3 -5 -1 -10 -9
-10 -8 0 -18 5 -21 10 -3 6 1 10 9 10 8 0 18 -4 21 -10z m-3325 -125 c5 -6 6
-16 1 -21 -5 -5 1 -59 14 -121 12 -62 18 -113 14 -113 -11 0 -15 17 -44 173
-28 154 -31 191 -9 133 8 -21 18 -44 24 -51z m7377 41 c-11 -27 -27 -17 -27
16 0 30 1 31 16 16 9 -9 14 -24 11 -32z m-4042 -16 c-3 -5 -17 -10 -31 -10
-13 0 -24 5 -24 10 0 6 14 10 31 10 17 0 28 -4 24 -10z m3275 -45 c0 -19 -2
-35 -4 -35 -2 0 -6 16 -8 35 -2 19 0 35 4 35 4 0 8 -16 8 -35z m1060 -31 c6
-14 7 -36 4 -50 -5 -20 -2 -24 14 -24 12 0 24 -5 28 -11 4 -8 -34 -9 -132 -4
-141 8 -189 15 -96 15 32 0 52 4 52 11 0 8 4 8 14 0 20 -16 36 14 36 67 0 21
3 41 6 45 12 11 65 -24 74 -49z m-306 -269 c-8 -165 -18 -383 -23 -483 -8
-171 -10 -185 -31 -205 l-22 -22 6 70 c4 39 11 171 16 295 16 386 31 611 41
637 23 62 27 -7 13 -292z m91 256 c-4 -17 -11 -31 -16 -31 -12 0 -12 17 1 25
6 3 10 16 10 27 0 12 3 19 6 15 3 -3 3 -19 -1 -36z m-973 7 c-7 -7 -12 -8 -12
-2 0 14 12 26 19 19 2 -3 -1 -11 -7 -17z m-5402 -29 c0 -10 -12 -11 -34 -3
-25 10 -19 22 9 16 14 -2 25 -8 25 -13z m4009 -103 c-9 -8 -10 -3 -5 23 3 18
7 48 8 65 1 17 3 7 5 -23 3 -33 0 -58 -8 -65z m-4764 85 c3 -5 1 -12 -5 -16
-5 -3 -10 1 -10 9 0 18 6 21 15 7z m858 2 c-7 -2 -21 -2 -30 0 -10 3 -4 5 12
5 17 0 24 -2 18 -5z m8540 -10 c-7 -2 -21 -2 -30 0 -10 3 -4 5 12 5 17 0 24
-2 18 -5z m-9593 -13 c0 -13 -11 -13 -30 0 -12 8 -11 10 8 10 12 0 22 -4 22
-10z m520 -20 c-20 -13 -53 -13 -45 0 3 6 18 10 33 10 21 0 24 -2 12 -10z
m405 -10 c3 -6 -5 -10 -19 -10 -14 0 -28 5 -31 10 -3 6 5 10 19 10 14 0 28 -4
31 -10z m-540 -10 c-16 -4 -43 -8 -60 -8 -25 -1 -27 1 -10 8 11 5 38 8 60 8
38 0 39 -1 10 -8z m685 -10 c12 -8 9 -10 -12 -10 -16 0 -28 5 -28 10 0 13 20
13 40 0z m6440 -11 c0 -5 -4 -9 -10 -9 -5 0 -10 7 -10 16 0 8 5 12 10 9 6 -3
10 -10 10 -16z m-6575 -14 c142 -17 235 -43 422 -117 159 -62 227 -101 347
-196 85 -67 216 -194 216 -208 0 -6 -21 -25 -47 -44 -58 -40 -42 -53 18 -13
l42 28 47 -54 c26 -29 54 -66 63 -81 16 -27 16 -27 -30 -61 -26 -19 -52 -37
-59 -41 -8 -5 -21 7 -38 37 -31 51 -134 165 -241 264 -94 87 -288 236 -283
218 2 -8 48 -48 103 -90 95 -72 216 -176 186 -161 -8 4 -60 43 -115 86 -55 43
-107 78 -114 78 -21 0 3 -27 41 -47 16 -8 87 -71 158 -139 132 -128 182 -162
108 -74 -59 70 -43 73 21 3 62 -67 115 -139 153 -205 37 -63 28 -61 -19 5 -20
28 -41 54 -46 55 -4 2 -8 9 -8 16 0 15 -40 59 -47 52 -3 -3 22 -48 57 -101 34
-53 77 -130 96 -171 43 -93 101 -265 109 -324 12 -86 58 -315 66 -330 6 -11 9
-5 9 20 1 29 3 31 10 15 5 -11 8 -60 8 -110 l-1 -90 -12 75 -12 75 -4 -95 c-4
-87 -6 -95 -24 -95 -18 0 -21 9 -27 75 -19 204 -31 287 -58 420 -56 277 -173
496 -377 706 -87 89 -209 189 -281 231 -26 15 -60 37 -75 49 -15 13 -44 26
-65 30 -20 4 -44 12 -52 19 -47 39 -191 89 -365 126 -187 39 -603 38 -679 -3
-12 -6 -22 -6 -28 0 -6 6 -19 7 -32 2 -11 -5 -61 -13 -111 -19 -49 -6 -137
-22 -194 -36 -173 -42 -493 -79 -656 -76 -168 4 -220 11 -220 31 0 13 35 16
212 22 181 6 386 28 402 43 10 11 -7 12 -59 4 -60 -8 -146 -12 -139 -5 2 3 63
12 134 21 83 10 134 21 141 30 7 10 39 16 95 18 46 2 91 6 99 9 8 3 53 14 100
24 47 9 94 22 105 28 18 9 59 18 141 33 18 3 35 0 38 -6 10 -16 36 -14 30 3
-6 16 63 30 241 46 66 7 129 13 140 15 34 6 244 -6 360 -20z m409 19 c17 -6
22 -24 8 -24 -5 0 -17 7 -28 15 -19 15 -8 20 20 9z m-1169 -14 c-36 -14 -185
-42 -198 -37 -7 3 7 8 30 12 24 4 50 13 58 19 9 6 41 12 73 13 37 1 50 -2 37
-7z m1040 -20 c8 -13 -15 -13 -35 0 -12 8 -11 10 7 10 12 0 25 -4 28 -10z
m6585 -46 c5 -21 12 -85 16 -142 6 -91 5 -102 -9 -96 -17 6 -22 39 -32 204 -4
67 -2 91 6 83 6 -6 14 -28 19 -49z m-2645 -14 c3 -5 -1 -10 -9 -10 -9 0 -16 5
-16 10 0 6 4 10 9 10 6 0 13 -4 16 -10z m4425 -10 c0 -5 -7 -10 -15 -10 -8 0
-15 5 -15 10 0 6 7 10 15 10 8 0 15 -4 15 -10z m-7780 -45 c-7 -8 -16 -15 -21
-15 -13 0 -11 24 3 38 18 18 35 -3 18 -23z m4040 21 c0 -3 -4 -8 -10 -11 -5
-3 -10 -1 -10 4 0 6 5 11 10 11 6 0 10 -2 10 -4z m4100 -5 c-8 -5 -73 -21
-144 -35 -124 -26 -295 -83 -460 -152 -95 -40 -106 -41 -107 -11 -1 14 -4 9
-8 -13 -7 -38 16 -24 -376 -230 -134 -70 -258 -142 -450 -260 -60 -37 -162
-97 -225 -132 -63 -36 -140 -80 -170 -100 -30 -19 -90 -54 -133 -76 -43 -23
-90 -51 -105 -61 -15 -11 -97 -59 -182 -108 -85 -49 -225 -130 -310 -179 -85
-50 -202 -117 -260 -149 -58 -32 -176 -99 -263 -148 -88 -50 -174 -95 -192
-102 -19 -6 -43 -19 -53 -28 -14 -13 -21 -14 -30 -5 -30 30 -11 46 146 134 86
48 204 116 262 150 58 34 167 96 242 137 75 42 188 107 250 145 62 37 154 90
203 117 111 60 354 206 416 250 26 18 116 70 200 116 241 129 309 167 378 209
34 22 70 40 79 40 9 0 27 11 41 24 30 28 167 110 289 173 46 24 95 52 108 62
14 11 38 23 54 26 17 4 30 11 30 15 0 13 111 63 205 94 120 39 295 76 430 91
156 17 154 17 135 6z m-8445 -10 c3 -5 1 -12 -5 -16 -5 -3 -10 1 -10 9 0 18 6
21 15 7z m3672 3 c-3 -3 -12 -4 -19 -1 -8 3 -5 6 6 6 11 1 17 -2 13 -5z m43
-4 c13 -8 13 -10 -2 -10 -9 0 -20 5 -23 10 -8 13 5 13 25 0z m-3647 -7 c-7 -2
-21 -2 -30 0 -10 3 -4 5 12 5 17 0 24 -2 18 -5z m5032 -3 c3 -5 2 -10 -4 -10
-5 0 -13 5 -16 10 -3 6 -2 10 4 10 5 0 13 -4 16 -10z m-5045 -30 c13 -8 13
-10 -2 -10 -9 0 -20 5 -23 10 -8 13 5 13 25 0z m320 -5 c14 -16 10 -18 -14 -9
-9 3 -16 10 -16 15 0 14 16 11 30 -6z m-2618 -12 c4 -2 5 -10 1 -18 -3 -10
-18 -15 -47 -14 -22 1 -31 4 -18 6 12 2 22 9 22 14 0 5 -47 9 -106 9 -73 0
-103 3 -98 11 4 7 42 9 123 4 64 -4 119 -9 123 -12z m5943 7 c3 -5 -1 -10 -9
-10 -9 0 -16 5 -16 10 0 6 4 10 9 10 6 0 13 -4 16 -10z m-1784 -133 c-13 -13
-15 73 -3 113 5 18 8 8 10 -39 2 -36 -2 -69 -7 -74z m7029 109 c112 -18 261
-59 379 -103 115 -42 315 -136 325 -151 4 -6 -3 -21 -15 -33 l-21 -21 -22 21
c-12 12 -26 21 -32 21 -5 0 -61 22 -124 49 -63 26 -135 53 -160 60 -257 67
-327 83 -426 96 -210 27 -400 18 -599 -30 -60 -15 -122 -24 -137 -21 -21 4
-30 1 -38 -14 -12 -23 -35 -26 -43 -6 -9 24 24 43 128 75 114 35 225 58 340
71 102 11 335 4 445 -14z m-3842 7 c-10 -2 -26 -2 -35 0 -10 3 -2 5 17 5 19 0
27 -2 18 -5z m-2211 -9 c-3 -3 -12 -4 -19 -1 -8 3 -5 6 6 6 11 1 17 -2 13 -5z
m-901 -52 c15 -2 20 -10 20 -36 0 -30 -2 -32 -18 -22 -15 9 -21 8 -28 -4 -16
-26 -22 -3 -14 57 6 44 9 52 14 33 3 -15 14 -26 26 -28z m2979 -44 c-9 -105
-27 -160 -20 -63 3 39 5 89 5 113 0 29 4 41 11 36 7 -4 9 -32 4 -86z m1206 82
c36 -20 23 -40 -26 -40 -30 0 -47 -5 -51 -14 -3 -7 -22 -16 -42 -20 -21 -3
-46 -12 -57 -21 -19 -14 -18 -14 14 -8 25 4 32 3 27 -5 -4 -7 -14 -12 -23 -12
-30 0 -82 -41 -108 -85 -14 -25 -28 -45 -32 -45 -11 0 9 95 32 146 16 37 33
58 57 70 77 40 169 55 209 34z m-5946 -10 c3 -5 1 -10 -4 -10 -6 0 -11 5 -11
10 0 6 2 10 4 10 3 0 8 -4 11 -10z m3340 0 c3 -5 1 -10 -4 -10 -6 0 -11 5 -11
10 0 6 2 10 4 10 3 0 8 -4 11 -10z m-3361 -21 c24 -19 27 -39 5 -39 -12 0 -49
37 -49 50 0 16 15 12 44 -11z m3501 11 c8 -12 -71 -12 -100 0 -14 6 -4 9 37 9
31 1 60 -3 63 -9z m-1300 -20 c3 -5 1 -10 -4 -10 -6 0 -11 5 -11 10 0 6 2 10
4 10 3 0 8 -4 11 -10z m-90 -9 c3 -5 1 -12 -5 -16 -5 -3 -10 1 -10 9 0 18 6
21 15 7z m473 -10 c3 -8 -1 -12 -9 -9 -7 2 -15 10 -17 17 -3 8 1 12 9 9 7 -2
15 -10 17 -17z m312 -2 c0 -4 -7 -6 -15 -3 -8 4 -15 10 -15 15 0 4 7 6 15 3 8
-4 15 -10 15 -15z m3704 12 c10 -15 -22 -20 -34 -5 -10 11 -9 14 8 14 12 0 23
-4 26 -9z m-4729 -11 c3 -5 2 -10 -4 -10 -5 0 -13 5 -16 10 -3 6 -2 10 4 10 5
0 13 -4 16 -10z m2615 0 c0 -5 -5 -10 -11 -10 -5 0 -7 5 -4 10 3 6 8 10 11 10
2 0 4 -4 4 -10z m507 -37 c-4 -17 -4 -17 -12 0 -4 9 -4 25 0 35 8 16 8 16 12
0 3 -10 3 -26 0 -35z m-3067 27 c0 -5 -2 -10 -4 -10 -3 0 -8 5 -11 10 -3 6 -1
10 4 10 6 0 11 -4 11 -10z m1047 -12 c-3 -8 -6 -5 -6 6 -1 11 2 17 5 13 3 -3
4 -12 1 -19z m528 12 c4 -6 -9 -10 -32 -10 -28 0 -34 3 -23 10 20 13 47 13 55
0z m925 0 c0 -5 -5 -10 -11 -10 -5 0 -7 5 -4 10 3 6 8 10 11 10 2 0 4 -4 4
-10z m146 -5 c18 -14 18 -14 -8 -15 -18 0 -28 5 -28 15 0 19 11 19 36 0z
m1091 -10 c-4 -8 -11 -15 -17 -15 -7 0 -7 6 0 21 13 23 26 19 17 -6z m-4217
11 c0 -3 -4 -8 -10 -11 -5 -3 -10 -1 -10 4 0 6 5 11 10 11 6 0 10 -2 10 -4z
m3351 -19 c-13 -13 -26 -3 -16 12 3 6 11 8 17 5 6 -4 6 -10 -1 -17z m59 -7 c0
-5 -4 -10 -10 -10 -5 0 -10 5 -10 10 0 6 5 10 10 10 6 0 10 -4 10 -10z m1645
0 c3 -5 -3 -10 -14 -10 -11 0 -23 5 -26 10 -3 6 3 10 14 10 11 0 23 -4 26 -10z
m-6317 -97 c50 -53 92 -101 92 -107 0 -6 -37 28 -82 76 -46 47 -93 91 -105 97
-13 7 -23 16 -23 21 0 26 33 2 118 -87z m7610 85 c16 -16 15 -23 -4 -43 -12
-11 -20 -13 -29 -5 -9 7 -16 6 -25 -5 -7 -8 -18 -15 -25 -15 -8 0 -15 -4 -17
-8 -1 -5 -78 -45 -170 -89 -91 -45 -235 -121 -320 -171 -255 -149 -353 -202
-374 -202 -10 0 -31 -13 -46 -29 -16 -15 -121 -81 -235 -146 -115 -65 -263
-153 -330 -194 -189 -117 -305 -185 -468 -275 -82 -46 -260 -145 -395 -221
-135 -76 -281 -157 -325 -181 -79 -43 -165 -67 -165 -46 0 9 50 39 295 175
109 60 271 153 490 282 77 45 217 126 310 180 94 54 231 135 305 181 74 45
178 105 230 134 52 29 185 105 295 170 110 64 277 159 370 210 94 51 186 103
205 116 19 13 85 46 145 74 61 28 118 56 127 61 10 5 26 9 35 9 10 0 36 11 58
24 48 29 48 29 63 14z m-7367 -31 c12 -22 12 -22 -10 -3 -11 11 -21 23 -21 28
0 14 19 -1 31 -25z m7879 29 c0 -11 -19 -15 -25 -6 -3 5 1 10 9 10 9 0 16 -2
16 -4z m-2419 -26 c19 -5 48 -24 65 -41 27 -29 29 -35 29 -115 0 -104 -18
-112 -26 -12 -8 107 -38 148 -109 148 -48 0 -72 -19 -116 -90 -47 -76 -56 -78
-14 -2 41 72 58 91 95 108 37 16 33 16 76 4z m-4131 -60 c0 -22 -4 -40 -10
-40 -11 0 -14 63 -3 73 11 12 13 8 13 -33z m7300 20 c0 -5 -2 -10 -4 -10 -3 0
-8 5 -11 10 -3 6 -1 10 4 10 6 0 11 -4 11 -10z m-7975 -10 c3 -5 -3 -10 -14
-10 -12 0 -21 5 -21 10 0 6 6 10 14 10 8 0 18 -4 21 -10z m4815 -105 c0 -169
-31 -239 -96 -215 -16 6 -32 17 -36 23 -9 14 -11 211 -2 220 4 3 16 0 28 -8
27 -20 37 -19 29 3 -4 11 4 7 25 -12 27 -25 32 -27 38 -12 7 18 2 59 -11 91
-8 18 -7 18 8 6 13 -11 17 -31 17 -96z m-5343 73 c-3 -8 -6 -5 -6 6 -1 11 2
17 5 13 3 -3 4 -12 1 -19z m8447 16 c9 -3 16 -11 16 -16 0 -6 -6 -5 -15 2 -8
6 -19 9 -25 5 -13 -8 -13 -62 0 -70 6 -3 10 -10 10 -16 0 -13 -94 -11 -108 3
-9 9 -15 9 -24 0 -15 -15 -58 -16 -58 -2 0 6 9 10 19 10 11 0 23 9 26 21 6 19
8 19 24 5 26 -24 31 -20 31 24 l0 40 44 0 c24 0 51 -3 60 -6z m-8614 -35 c0
-6 -4 -7 -10 -4 -5 3 -10 11 -10 16 0 6 5 7 10 4 6 -3 10 -11 10 -16z m151
-100 c16 -34 28 -63 26 -65 -5 -5 -97 169 -97 183 0 11 33 -44 71 -118z m3533
85 c9 -3 16 -10 16 -15 0 -14 -44 -10 -66 6 -18 14 -18 14 8 15 14 0 33 -3 42
-6z m56 2 c0 -3 -4 -8 -10 -11 -5 -3 -10 -1 -10 4 0 6 5 11 10 11 6 0 10 -2
10 -4z m4910 -48 c0 -14 -18 -9 -24 8 -11 28 -6 39 9 20 8 -11 15 -23 15 -28z
m79 0 c4 -13 11 -40 14 -60 l6 -38 -78 0 c-44 0 -82 5 -88 11 -13 13 -47 4
-39 -10 9 -13 -87 0 -104 15 -10 9 -20 10 -30 4 -19 -12 -80 -13 -80 -2 0 5 9
17 20 27 18 16 34 17 180 10 l160 -7 0 29 c0 47 24 60 39 21z m65 -9 c9 -45 7
-87 -3 -93 -10 -6 -21 41 -21 90 0 43 15 44 24 3z m86 -40 c0 -35 -19 -48 -37
-24 -14 20 -18 77 -6 89 12 12 43 -34 43 -65z m-2010 31 c0 -5 -5 -10 -11 -10
-5 0 -7 5 -4 10 3 6 8 10 11 10 2 0 4 -4 4 -10z m-480 -20 c0 -5 -4 -10 -10
-10 -5 0 -10 5 -10 10 0 6 5 10 10 10 6 0 10 -4 10 -10z m115 0 c-10 -16 -85
-52 -98 -47 -7 3 13 16 43 31 63 29 63 30 55 16z m-7670 -33 c291 -82 407
-149 626 -367 133 -133 210 -242 281 -403 54 -123 116 -355 122 -461 l5 -71
-11 58 c-19 97 -28 64 -21 -76 5 -119 -4 -260 -14 -214 -3 9 -8 17 -13 17 -11
0 -14 -13 -35 -120 -26 -129 -34 -116 -14 22 17 114 18 140 3 125 -4 -3 -20
-73 -36 -154 -29 -143 -80 -295 -132 -388 -79 -143 -287 -368 -426 -460 -85
-56 -191 -105 -237 -109 -19 -2 -39 -9 -43 -16 -4 -7 -13 -9 -19 -6 -6 4 -25
-2 -41 -14 -25 -18 -33 -20 -46 -9 -12 10 -18 8 -30 -10 -15 -20 -18 -21 -33
-7 -15 14 -18 13 -29 -5 -11 -17 -16 -18 -28 -9 -11 10 -17 10 -29 0 -8 -6
-19 -9 -24 -6 -5 4 -12 2 -16 -4 -8 -14 -48 -13 -63 2 -9 9 -16 8 -30 -5 -23
-21 -36 -21 -57 -1 -15 15 -17 15 -34 0 -25 -23 -67 -20 -85 6 -14 19 -16 19
-22 5 -7 -19 -34 -23 -34 -6 0 7 -9 9 -22 6 -12 -4 -27 -2 -34 4 -8 7 -14 7
-19 -1 -10 -17 -42 -12 -139 21 -251 86 -473 229 -592 382 -40 51 -50 57 -56
29 -3 -12 -18 4 -50 53 -112 171 -184 369 -219 600 -16 106 -28 126 -30 50
l-2 -60 -10 72 c-5 41 -6 100 -2 140 l8 68 13 -50 12 -50 1 66 c1 51 -3 68
-14 73 -30 11 -8 263 24 274 6 2 11 16 11 31 0 113 243 534 360 624 138 106
171 131 220 165 121 86 332 172 494 201 33 6 62 14 65 17 3 3 107 4 231 1 200
-4 235 -8 315 -30z m7985 23 c0 -5 -5 -10 -11 -10 -5 0 -7 5 -4 10 3 6 8 10
11 10 2 0 4 -4 4 -10z m-1537 -20 c-3 -11 -9 -20 -13 -20 -5 0 -6 9 -3 20 3
11 9 20 13 20 5 0 6 -9 3 -20z m-5339 -6 c3 -8 2 -12 -4 -9 -6 3 -10 10 -10
16 0 14 7 11 14 -7z m64 -32 c6 -18 -15 -14 -22 4 -4 10 -1 14 6 12 6 -2 14
-10 16 -16z m7929 6 c7 -6 19 -4 31 3 15 10 32 10 77 1 32 -7 79 -12 104 -12
75 0 348 -96 436 -152 102 -66 143 -95 185 -131 27 -23 69 -58 95 -77 92 -69
241 -267 301 -396 15 -32 33 -70 40 -84 29 -59 65 -167 90 -277 31 -139 43
-369 25 -522 -11 -99 -64 -308 -86 -338 -7 -9 2 34 20 97 42 147 52 204 34
198 -7 -2 -18 -33 -26 -69 -45 -222 -181 -483 -347 -667 -88 -97 -88 -131 0
-37 96 102 182 220 243 335 57 108 83 134 31 31 -115 -228 -306 -451 -482
-564 -75 -48 -285 -147 -311 -147 -8 0 -34 -9 -58 -19 -114 -50 -352 -71 -521
-47 -476 69 -843 305 -1083 696 -62 102 -100 178 -91 187 2 3 21 -28 42 -68
109 -219 237 -367 458 -532 69 -53 308 -171 414 -207 217 -72 431 -84 657 -36
72 15 159 36 194 47 122 38 330 158 277 159 -10 0 -24 7 -31 16 -11 15 -18 14
-73 -16 -34 -18 -68 -30 -75 -27 -8 3 -21 -3 -30 -14 -9 -10 -28 -19 -41 -19
-13 0 -29 -7 -36 -15 -14 -17 -80 -37 -220 -65 -89 -19 -127 -21 -250 -17 -80
3 -176 12 -215 21 -436 98 -771 364 -971 768 -27 54 -52 98 -57 98 -31 0 74
-213 166 -335 103 -137 230 -258 362 -344 133 -87 218 -128 349 -170 166 -53
229 -64 381 -64 223 -1 408 43 618 147 58 29 87 39 87 30 0 -38 -311 -157
-494 -189 -186 -33 -430 -6 -657 75 -356 125 -682 438 -819 785 -62 157 -82
196 -95 185 -17 -14 -22 2 -40 119 -21 141 -18 372 7 501 33 179 59 254 144
426 139 279 449 559 707 639 29 9 60 21 70 26 31 17 140 48 149 43 4 -3 14 -2
21 3 36 23 269 40 294 21z m-1562 -8 c-3 -5 -11 -10 -16 -10 -6 0 -7 5 -4 10
3 6 11 10 16 10 6 0 7 -4 4 -10z m-6363 -54 l21 -31 -36 34 c-21 19 -37 39
-37 44 0 14 28 -11 52 -47z m4334 18 c-4 -9 -9 -15 -11 -12 -3 3 -3 13 1 22 4
9 9 15 11 12 3 -3 3 -13 -1 -22z m1976 10 c-5 -9 -25 -25 -45 -37 -478 -290
-833 -496 -854 -497 -7 0 -34 -15 -60 -34 -83 -58 -596 -349 -663 -376 -19 -7
-44 -22 -56 -32 -11 -10 -26 -18 -34 -18 -8 0 -23 -9 -34 -19 -28 -26 -190
-119 -221 -127 -18 -4 -25 -2 -25 8 0 20 28 44 72 62 20 9 39 24 43 35 16 52
319 288 356 278 12 -3 19 0 19 8 0 18 53 62 216 180 166 121 298 192 454 245
69 24 134 49 145 56 11 8 27 14 36 14 9 0 22 7 30 16 8 9 21 13 35 10 12 -3
24 -3 26 2 6 14 184 100 283 136 55 21 115 44 134 52 32 14 35 14 44 -2 9 -15
11 -15 22 5 12 23 49 48 73 50 9 1 10 -4 4 -15z m-6193 -49 c0 -5 -6 1 -14 15
-8 14 -14 30 -14 35 0 6 6 -1 14 -15 8 -14 14 -29 14 -35z m1101 51 c0 -2 -7
-9 -15 -16 -13 -11 -14 -10 -9 4 5 14 24 23 24 12z m3968 -74 c-63 -113 -66
-117 -73 -110 -7 6 41 93 87 161 36 51 29 27 -14 -51z m3497 58 c-27 -12 -77
-12 -95 0 -10 7 5 10 50 9 45 0 59 -3 45 -9z m-3352 -32 c17 -39 43 -63 76
-71 36 -9 108 26 129 62 9 17 23 31 30 31 38 0 -19 -139 -70 -170 -18 -11 -40
-20 -48 -20 -9 0 -4 8 12 17 51 32 43 43 -30 43 -82 0 -112 14 -135 62 -14 29
-16 42 -7 58 15 28 28 25 43 -12z m-4776 16 c-3 -3 -12 -4 -19 -1 -8 3 -5 6 6
6 11 1 17 -2 13 -5z m2323 -20 c0 -8 -4 -12 -10 -9 -5 3 -10 13 -10 21 0 8 5
12 10 9 6 -3 10 -13 10 -21z m5660 12 c0 -8 -4 -18 -10 -21 -5 -3 -10 3 -10
14 0 12 5 21 10 21 6 0 10 -6 10 -14z m240 -2 c0 -8 -4 -12 -10 -9 -5 3 -10
10 -10 16 0 5 5 9 10 9 6 0 10 -7 10 -16z m-7662 -1 c-10 -2 -26 -2 -35 0 -10
3 -2 5 17 5 19 0 27 -2 18 -5z m3172 -48 c-7 -9 -15 -13 -17 -11 -7 7 7 26 19
26 6 0 6 -6 -2 -15z m-4236 -45 c-7 -6 -24 22 -23 40 0 9 6 5 14 -10 7 -14 11
-27 9 -30z m4337 33 c-15 -29 -40 -59 -41 -50 0 10 39 67 46 67 3 0 0 -8 -5
-17z m4381 -15 c-9 -9 -12 -7 -12 12 0 19 3 21 12 12 9 -9 9 -15 0 -24z
m-8814 -2 c-15 -13 -37 -31 -49 -40 -39 -27 -11 -31 36 -6 60 33 67 20 11 -21
-53 -37 -57 -49 -19 -49 25 0 26 -1 8 -20 -10 -11 -22 -17 -27 -14 -8 5 -58
98 -58 108 0 7 103 66 115 65 6 0 -2 -10 -17 -23z m3757 14 c3 -5 -1 -10 -9
-10 -9 0 -16 5 -16 10 0 6 4 10 9 10 6 0 13 -4 16 -10z m2495 -4 c0 -3 -4 -8
-10 -11 -5 -3 -10 -1 -10 4 0 6 5 11 10 11 6 0 10 -2 10 -4z m-1405 -26 c3 -5
1 -10 -4 -10 -6 0 -11 5 -11 10 0 6 2 10 4 10 3 0 8 -4 11 -10z m1042 4 c-3
-3 -12 -4 -19 -1 -8 3 -5 6 6 6 11 1 17 -2 13 -5z m-2882 -14 c3 -5 1 -10 -4
-10 -6 0 -11 5 -11 10 0 6 2 10 4 10 3 0 8 -4 11 -10z m3165 -10 c0 -5 -4 -10
-10 -10 -5 0 -10 5 -10 10 0 6 5 10 10 10 6 0 10 -4 10 -10z m-1810 -24 c0 -2
-8 -10 -17 -17 -16 -13 -17 -12 -4 4 13 16 21 21 21 13z m4445 -6 c3 -5 1 -10
-4 -10 -6 0 -11 5 -11 10 0 6 2 10 4 10 3 0 8 -4 11 -10z m-8745 -10 c0 -5 -5
-10 -11 -10 -5 0 -7 5 -4 10 3 6 8 10 11 10 2 0 4 -4 4 -10z m6017 -15 c-25
-22 -47 -32 -47 -21 0 5 63 46 70 46 3 -1 -8 -12 -23 -25z m-4969 -5 c-15 -23
-28 -26 -28 -7 0 17 10 27 27 27 11 0 11 -4 1 -20z m7779 14 c-3 -3 -12 -4
-19 -1 -8 3 -5 6 6 6 11 1 17 -2 13 -5z m-8747 -14 c0 -5 -2 -10 -4 -10 -3 0
-8 5 -11 10 -3 6 -1 10 4 10 6 0 11 -4 11 -10z m6150 -18 c0 -8 -53 -42 -66
-42 -4 0 7 11 26 25 37 27 40 29 40 17z m657 2 c-3 -3 -12 -4 -19 -1 -8 3 -5
6 6 6 11 1 17 -2 13 -5z m98 -4 c3 -5 -1 -10 -10 -10 -9 0 -13 5 -10 10 3 6 8
10 10 10 2 0 7 -4 10 -10z m-6970 -9 c-10 -17 -97 -72 -93 -59 3 7 24 25 49
40 51 31 52 31 44 19z m257 -23 c-6 -6 -15 -8 -19 -4 -4 4 -1 11 7 16 19 12
27 3 12 -12z m-21 -39 c109 -65 134 -90 175 -175 30 -64 34 -80 34 -156 0 -98
-16 -159 -72 -275 l-39 -83 -50 0 c-55 0 -66 15 -18 25 31 7 31 7 8 19 -29 14
-51 67 -31 74 7 2 25 14 39 26 l26 22 -12 135 c-11 125 -21 162 -37 146 -4 -4
-1 -60 5 -126 13 -122 10 -161 -14 -161 -18 0 -21 13 -40 160 -17 133 -46 271
-76 359 -11 30 -19 56 -19 58 0 14 50 -5 121 -48z m5665 36 c-11 -8 -25 -15
-30 -15 -6 0 -2 7 8 15 11 8 25 15 30 15 6 0 2 -7 -8 -15z m-6021 -61 c6 -25
4 -24 -14 11 -12 21 -21 44 -21 49 0 19 29 -30 35 -60z m151 37 c-6 -8 -93
-61 -102 -61 -2 0 -4 4 -4 10 0 10 102 72 108 65 2 -2 1 -8 -2 -14z m108 -136
c41 -146 55 -238 37 -249 -7 -5 -11 6 -11 33 0 51 -14 119 -51 247 -30 104
-36 143 -20 114 5 -8 25 -73 45 -145z m156 151 c0 -11 -19 -15 -25 -6 -3 5 1
10 9 10 9 0 16 -2 16 -4z m-2931 -16 c-10 -6 -50 -17 -90 -25 -41 -9 -102 -25
-137 -36 -63 -21 -92 -21 -53 0 28 15 240 70 271 70 21 0 22 -1 9 -9z m2961
-15 c-7 -9 -15 -13 -18 -10 -3 2 1 11 8 20 7 9 15 13 18 10 3 -2 -1 -11 -8
-20z m56 -11 c-11 -7 -22 -11 -25 -8 -3 3 3 12 13 20 11 7 22 11 25 8 3 -3 -3
-12 -13 -20z m3764 6 c0 -5 -7 -10 -15 -10 -8 0 -15 5 -15 10 0 6 7 10 15 10
8 0 15 -4 15 -10z m45 0 c-3 -5 -10 -10 -16 -10 -5 0 -9 5 -9 10 0 6 7 10 16
10 8 0 12 -4 9 -10z m874 -52 c0 -70 -17 -129 -38 -136 -12 -4 -13 9 -7 78 7
82 18 120 36 120 6 0 10 -28 9 -62z m-656 45 c-13 -2 -33 -2 -45 0 -13 2 -3 4
22 4 25 0 35 -2 23 -4z m77 3 c0 -3 -4 -8 -10 -11 -5 -3 -10 -1 -10 4 0 6 5
11 10 11 6 0 10 -2 10 -4z m195 -14 c-6 -5 -39 -6 -75 -2 l-65 7 75 1 c40 1
70 -2 65 -6z m65 -2 c0 -5 -9 -10 -21 -10 -11 0 -17 5 -14 10 3 6 13 10 21 10
8 0 14 -4 14 -10z m1300 -5 c-7 -8 -17 -15 -22 -15 -6 0 -5 7 2 15 7 8 17 15
22 15 6 0 5 -7 -2 -15z m-5970 -51 c0 -13 -8 -24 -19 -27 -28 -7 -34 3 -14 25
27 30 7 32 -43 4 -33 -18 -51 -23 -58 -16 -14 14 1 27 60 50 45 17 50 17 62 2
6 -9 12 -26 12 -38z m4810 47 c0 -6 -17 -7 -37 -4 -52 8 -54 13 -5 13 23 0 42
-4 42 -9z m50 -16 c-13 -16 -110 -82 -134 -91 -35 -14 -13 15 27 34 23 12 56
32 72 46 33 28 55 35 35 11z m1755 -5 c7 -12 -12 -12 -40 0 -18 8 -17 9 7 9
15 1 30 -3 33 -9z m-2565 -10 c0 -5 9 -19 21 -31 11 -11 18 -24 14 -27 -4 -4
-18 7 -31 23 -26 32 -30 45 -14 45 6 0 10 -4 10 -10z m1850 1 c0 -5 -7 -12
-16 -15 -14 -5 -15 -4 -4 9 14 17 20 19 20 6z m-255 -11 c-3 -5 -12 -10 -18
-10 -7 0 -6 4 3 10 19 12 23 12 15 0z m-8480 -37 c-61 -95 -95 -130 -80 -84 3
12 -4 30 -20 49 l-26 31 48 14 c26 8 59 15 72 16 23 1 23 1 6 -26z m8658 -1
c-36 -27 -127 -76 -119 -64 6 11 125 82 136 82 3 0 -5 -8 -17 -18z m-5893 -12
c-12 -23 -50 -46 -50 -31 0 12 40 51 52 51 5 0 4 -9 -2 -20z m5650 15 c0 -2
-13 -11 -30 -20 -38 -19 -40 -11 -2 9 31 17 32 18 32 11z m-535 -15 c3 -5 -1
-10 -9 -10 -9 0 -16 5 -16 10 0 6 4 10 9 10 6 0 13 -4 16 -10z m-8200 -45
c-13 -20 -26 -49 -30 -65 -4 -17 -11 -30 -16 -30 -6 0 -7 10 -4 23 11 34 55
107 65 107 5 0 -1 -16 -15 -35z m3165 31 c0 -8 -94 -66 -107 -66 -27 0 -11 20
35 44 43 23 72 32 72 22z m4156 -38 c21 -12 32 -24 26 -26 -12 -4 -68 23 -77
38 -10 16 11 11 51 -12z m504 12 c0 -5 -5 -10 -11 -10 -5 0 -7 5 -4 10 3 6 8
10 11 10 2 0 4 -4 4 -10z m-7650 -10 c0 -5 -4 -10 -10 -10 -5 0 -10 5 -10 10
0 6 5 10 10 10 6 0 10 -4 10 -10z m3000 -13 c0 -7 -22 -30 -50 -50 -45 -34
-63 -57 -42 -57 4 0 29 16 56 35 50 35 70 39 46 9 -8 -8 -34 -29 -58 -46 -48
-33 -62 -28 -62 24 0 20 11 35 48 61 52 39 62 43 62 24z m-3056 -13 c11 -27 7
-37 -9 -24 -12 10 -18 10 -30 0 -20 -17 -20 4 1 24 20 20 30 20 38 0z m3996
-4 c0 -5 -9 -10 -20 -10 -11 0 -20 5 -20 10 0 6 9 10 20 10 11 0 20 -4 20 -10z
m3365 -27 c70 -9 69 -27 -1 -19 -75 9 -94 15 -94 28 0 6 10 8 25 4 14 -4 45
-9 70 -13z m220 7 c3 -5 1 -10 -4 -10 -6 0 -11 5 -11 10 0 6 2 10 4 10 3 0 8
-4 11 -10z m-7668 -22 c-3 -8 -6 -5 -6 6 -1 11 2 17 5 13 3 -3 4 -12 1 -19z
m3017 -38 c5 -23 4 -30 -2 -20 -6 8 -13 31 -16 50 -5 23 -4 30 2 20 6 -8 13
-31 16 -50z m1036 50 c510 -19 939 -30 955 -24 9 4 14 13 10 22 -4 12 2 13 37
8 24 -4 53 -14 65 -21 17 -11 83 -17 264 -24 220 -9 245 -12 270 -30 16 -12
33 -21 38 -21 6 0 15 -9 21 -20 10 -19 50 -29 50 -12 0 4 -13 22 -29 40 l-30
32 25 0 c13 0 34 -11 46 -25 12 -14 27 -25 34 -25 9 0 11 -7 7 -17 -9 -24 -23
-33 -52 -33 -13 0 -39 -9 -57 -21 -50 -31 -121 -30 -145 2 l-19 24 -6 -23 c-8
-26 -31 -24 -26 3 3 16 1 15 -24 -4 -32 -25 -44 -27 -44 -6 0 17 -16 20 -26 4
-4 -7 -9 -8 -17 0 -7 7 -14 5 -23 -7 -12 -16 -13 -16 -19 1 -8 20 -46 23 -77
6 -17 -9 -24 -8 -33 5 -15 20 -29 20 -45 1 -17 -20 -158 -21 -185 -1 -16 12
-17 16 -6 30 11 13 11 17 -4 22 -19 8 -35 -10 -35 -38 0 -19 -26 -24 -49 -9
-9 6 -21 5 -31 -1 -30 -19 -88 6 -103 44 -4 10 -10 8 -21 -6 -8 -10 -17 -24
-19 -29 -2 -6 -36 -13 -75 -15 l-72 -4 7 33 c6 33 6 34 -14 17 -26 -24 -83
-43 -92 -31 -4 6 -42 6 -103 0 -85 -9 -100 -8 -123 7 -19 12 -30 14 -44 6 -36
-19 -54 -13 -47 15 4 14 2 25 -3 25 -5 0 -11 -10 -13 -22 -3 -23 -6 -23 -160
-26 -157 -2 -158 -2 -158 19 0 22 0 22 -21 3 -18 -16 -34 -18 -122 -16 -56 2
-105 6 -108 10 -4 4 -9 37 -11 75 l-4 67 101 0 c55 0 219 -5 365 -10z m1275 0
c3 -5 1 -10 -4 -10 -6 0 -11 5 -11 10 0 6 2 10 4 10 3 0 8 -4 11 -10z m268
-17 c-7 -2 -21 -2 -30 0 -10 3 -4 5 12 5 17 0 24 -2 18 -5z m127 -3 c0 -5 -9
-10 -21 -10 -11 0 -17 5 -14 10 3 6 13 10 21 10 8 0 14 -4 14 -10z m1843 3
c-7 -2 -21 -2 -30 0 -10 3 -4 5 12 5 17 0 24 -2 18 -5z m1520 0 c-7 -2 -19 -2
-25 0 -7 3 -2 5 12 5 14 0 19 -2 13 -5z m-5542 -46 c-8 -8 -11 -5 -11 9 0 27
14 41 18 19 2 -9 -1 -22 -7 -28z m3739 33 c0 -5 -2 -10 -4 -10 -3 0 -8 5 -11
10 -3 6 -1 10 4 10 6 0 11 -4 11 -10z m1160 6 c0 -2 -7 -7 -16 -10 -8 -3 -12
-2 -9 4 6 10 25 14 25 6z m230 -16 c-14 -11 -29 -20 -35 -20 -5 0 1 9 15 20
14 11 30 20 35 20 6 0 -1 -9 -15 -20z m902 8 c-9 -9 -15 -9 -24 0 -9 9 -7 12
12 12 19 0 21 -3 12 -12z m-6418 -29 c-14 -16 -15 -22 -6 -28 10 -6 6 -12 -12
-24 -31 -21 -37 -21 -30 -2 8 19 -1 19 -31 -1 -14 -9 -25 -12 -25 -7 0 8 106
83 118 83 3 0 -3 -9 -14 -21z m5781 11 c3 -5 -3 -10 -14 -10 -11 0 -23 5 -26
10 -3 6 3 10 14 10 11 0 23 -4 26 -10z m-8851 -9 c8 -13 -4 -42 -15 -35 -12 7
-12 44 0 44 6 0 12 -4 15 -9z m9146 0 c0 -9 -179 -3 -189 5 -2 2 39 4 92 4 54
0 97 -4 97 -9z m288 -8 c-21 -2 -55 -2 -75 0 -21 2 -4 4 37 4 41 0 58 -2 38
-4z m-9278 -13 c0 -5 -4 -10 -9 -10 -6 0 -13 5 -16 10 -3 6 1 10 9 10 9 0 16
-4 16 -10z m8354 -4 c-10 -8 -21 -12 -24 -10 -5 6 21 24 34 24 6 0 1 -6 -10
-14z m-5804 -16 c0 -5 -6 -10 -14 -10 -8 0 -18 5 -21 10 -3 6 3 10 14 10 12 0
21 -4 21 -10z m110 0 c0 -13 -20 -13 -40 0 -12 8 -9 10 13 10 15 0 27 -4 27
-10z m5928 -19 c-4 -40 15 -44 22 -6 l5 30 80 0 c76 0 80 -1 83 -23 4 -30 -14
-52 -43 -52 -36 0 -48 -24 -43 -85 6 -66 -12 -60 -32 10 -14 51 -23 60 -68 70
-27 6 -52 29 -52 49 0 8 31 36 41 36 5 0 8 -13 7 -29z m-5648 -15 c0 -2 -7 -7
-16 -10 -8 -3 -12 -2 -9 4 6 10 25 14 25 6z m4020 -4 c0 -5 -13 -7 -30 -4 -16
2 -30 6 -30 8 0 2 14 4 30 4 17 0 30 -4 30 -8z m-7160 -12 c0 -5 -7 -10 -16
-10 -8 0 -12 5 -9 10 3 6 10 10 16 10 5 0 9 -4 9 -10z m3040 6 c0 -3 -4 -8
-10 -11 -5 -3 -10 -1 -10 4 0 6 5 11 10 11 6 0 10 -2 10 -4z m5660 0 c0 -3 -4
-8 -10 -11 -5 -3 -10 -1 -10 4 0 6 5 11 10 11 6 0 10 -2 10 -4z m-5610 -20 c0
-3 -4 -8 -10 -11 -5 -3 -10 -1 -10 4 0 6 5 11 10 11 6 0 10 -2 10 -4z m125
-171 c4 -65 3 -85 -5 -73 -5 9 -12 65 -15 125 -6 130 10 89 20 -52z m350 145
c-3 -5 -13 -10 -21 -10 -8 0 -12 5 -9 10 3 6 13 10 21 10 8 0 12 -4 9 -10z
m115 0 c0 -5 -6 -10 -14 -10 -8 0 -18 5 -21 10 -3 6 3 10 14 10 12 0 21 -4 21
-10z m245 0 c13 -6 -11 -9 -70 -9 -49 0 -99 4 -110 9 -13 6 11 9 70 9 50 0 99
-4 110 -9z m1785 0 c0 -5 -4 -10 -10 -10 -5 0 -10 5 -10 10 0 6 5 10 10 10 6
0 10 -4 10 -10z m-2678 -22 c-7 -7 -12 -8 -12 -2 0 6 3 14 7 17 3 4 9 5 12 2
2 -3 -1 -11 -7 -17z m1038 12 c-20 -13 -40 -13 -40 0 0 6 12 10 28 10 21 0 24
-2 12 -10z m123 3 c-7 -2 -21 -2 -30 0 -10 3 -4 5 12 5 17 0 24 -2 18 -5z
m167 -3 c-18 -12 -88 -12 -115 0 -14 6 4 9 55 9 52 1 70 -2 60 -9z m345 -10
c8 -12 -101 -12 -130 0 -14 6 2 9 52 9 39 1 75 -3 78 -9z m65 0 c0 -5 -7 -10
-16 -10 -8 0 -12 5 -9 10 3 6 10 10 16 10 5 0 9 -4 9 -10z m365 -10 c4 -6 -7
-10 -24 -10 -17 0 -31 5 -31 10 0 6 11 10 24 10 14 0 28 -4 31 -10z m150 0 c3
-5 -1 -10 -10 -10 -9 0 -13 5 -10 10 3 6 8 10 10 10 2 0 7 -4 10 -10z m-1730
-10 c3 -5 -1 -10 -9 -10 -9 0 -16 5 -16 10 0 6 4 10 9 10 6 0 13 -4 16 -10z
m115 -20 c0 -14 7 -18 33 -18 17 1 52 -3 77 -9 43 -9 44 -9 17 -16 -38 -10
-29 -30 19 -41 78 -17 81 -27 7 -21 -40 3 -73 1 -73 -3 0 -5 -27 -6 -60 -4
-52 4 -60 2 -60 -13 0 -14 -3 -15 -14 -6 -7 6 -34 14 -59 17 -57 8 -52 24 8
24 52 0 75 8 75 25 0 16 -31 24 -95 26 -70 1 -21 17 58 18 44 1 57 5 57 16 0
8 -5 15 -11 15 -5 0 -7 5 -4 10 9 15 25 2 25 -20z m55 20 c-3 -5 -11 -10 -16
-10 -6 0 -7 5 -4 10 3 6 11 10 16 10 6 0 7 -4 4 -10z m55 0 c0 -5 -7 -10 -15
-10 -8 0 -15 5 -15 10 0 6 7 10 15 10 8 0 15 -4 15 -10z m1640 0 c0 -5 -4 -10
-10 -10 -5 0 -10 5 -10 10 0 6 5 10 10 10 6 0 10 -4 10 -10z m180 0 c21 -7 19
-8 -17 -9 -23 -1 -45 4 -48 9 -7 12 29 12 65 0z m-1645 -10 c8 -13 -75 -13
-95 0 -11 7 0 10 37 10 28 0 55 -4 58 -10z m90 0 c3 -5 -1 -10 -9 -10 -8 0
-18 5 -21 10 -3 6 1 10 9 10 8 0 18 -4 21 -10z m-995 -10 c0 -5 -5 -10 -11
-10 -5 0 -7 5 -4 10 3 6 8 10 11 10 2 0 4 -4 4 -10z m1233 3 c-7 -2 -21 -2
-30 0 -10 3 -4 5 12 5 17 0 24 -2 18 -5z m-1203 -13 c0 -5 -5 -10 -11 -10 -5
0 -7 5 -4 10 3 6 8 10 11 10 2 0 4 -4 4 -10z m83 -42 c-1 -64 -9 -108 -22
-120 -11 -11 -12 -9 -6 11 5 16 4 21 -4 17 -13 -8 -15 6 -2 20 5 5 12 26 15
48 7 36 6 38 -13 33 -25 -6 -27 6 -5 28 22 22 38 6 37 -37z m5967 42 c0 -5 -5
-10 -11 -10 -5 0 -7 5 -4 10 3 6 8 10 11 10 2 0 4 -4 4 -10z m-6284 -47 c-11
-11 -19 6 -11 24 8 17 8 17 12 0 3 -10 2 -21 -1 -24z m2561 31 c-3 -3 -12 -4
-19 -1 -8 3 -5 6 6 6 11 1 17 -2 13 -5z m-1362 -14 c21 -5 4 -8 -55 -8 -56 0
-78 2 -65 8 24 10 79 10 120 0z m115 -6 c0 -2 -9 -4 -21 -4 -11 0 -18 4 -14
10 5 8 35 3 35 -6z m4630 -4 c-19 -13 -30 -13 -30 0 0 6 10 10 23 10 18 0 19
-2 7 -10z m260 0 c22 -7 21 -8 -12 -9 -21 -1 -38 4 -38 9 0 11 14 11 50 0z
m-4200 -10 c0 -5 -12 -10 -26 -10 -14 0 -23 4 -19 10 3 6 15 10 26 10 10 0 19
-4 19 -10z m-102 -7 c-10 -2 -28 -2 -40 0 -13 2 -5 4 17 4 22 1 32 -1 23 -4z
m520 -10 c-15 -2 -42 -2 -60 0 -18 2 -6 4 27 4 33 0 48 -2 33 -4z m560 -20
c-15 -2 -42 -2 -60 0 -18 2 -6 4 27 4 33 0 48 -2 33 -4z m92 3 c0 -2 -9 -6
-20 -9 -11 -3 -20 -1 -20 4 0 5 9 9 20 9 11 0 20 -2 20 -4z m3108 -3 c-10 -2
-28 -2 -40 0 -13 2 -5 4 17 4 22 1 32 -1 23 -4z m-4965 -10 c-7 -2 -21 -2 -30
0 -10 3 -4 5 12 5 17 0 24 -2 18 -5z m302 -3 c-3 -5 -11 -10 -16 -10 -6 0 -7
5 -4 10 3 6 11 10 16 10 6 0 7 -4 4 -10z m-1265 -7 c0 -5 -11 -13 -25 -20 -20
-9 -25 -8 -25 2 0 13 14 23 38 24 6 1 12 -2 12 -6z m5970 -33 c0 -5 -7 -7 -15
-4 -8 4 -15 8 -15 10 0 2 7 4 15 4 8 0 15 -4 15 -10z m-5523 -25 c3 -9 2 -19
-2 -23 -4 -4 -10 -1 -12 6 -7 17 -23 15 -23 -4 0 -11 -5 -14 -17 -9 -10 4 -26
10 -35 12 -10 3 -18 12 -18 19 0 21 99 19 107 -1z m93 11 c0 -16 -14 -36 -25
-36 -14 0 -27 25 -18 34 7 7 43 8 43 2z m64 -4 c2 -4 -4 -18 -14 -31 l-18 -24
-6 21 c-4 12 -4 26 -1 32 7 12 32 13 39 2z m151 -2 c17 -7 16 -9 -10 -9 -16 0
-37 4 -45 9 -12 8 -10 10 10 9 14 0 34 -4 45 -9z m5301 0 c15 -6 24 -13 22
-16 -3 -3 -21 2 -39 10 -39 16 -24 21 17 6z m-91 -10 c3 -6 -1 -7 -9 -4 -18 7
-21 14 -7 14 6 0 13 -4 16 -10z m-5971 -9 c8 -12 -30 -58 -40 -49 -4 4 -2 14
4 21 9 10 8 17 0 25 -9 9 -7 12 9 12 12 0 24 -4 27 -9z m-164 -93 c0 -5 -4 -8
-9 -8 -9 0 -61 75 -61 87 1 10 70 -69 70 -79z m6445 33 c-3 -12 -11 -21 -16
-21 -10 0 -12 43 -2 54 12 12 25 -11 18 -33z m-5115 -1 c135 -5 533 -14 885
-20 352 -7 671 -15 710 -18 63 -6 70 -9 76 -32 l6 -25 12 29 12 29 337 -7
c616 -13 926 -25 939 -39 7 -6 24 -42 37 -79 29 -78 32 -76 -65 -58 -43 8
-235 18 -364 19 -11 0 -94 0 -185 1 -118 1 -173 5 -192 15 -15 7 -30 10 -33 5
-13 -21 -66 -21 -106 -1 -47 25 -56 26 -40 7 9 -11 9 -16 0 -22 -7 -4 -14 -3
-16 2 -2 6 -31 8 -69 6 -37 -3 -70 0 -76 6 -7 7 -22 7 -46 0 -40 -11 -118 -4
-138 12 -8 8 -14 8 -19 0 -8 -13 -345 -13 -440 1 -71 11 -98 12 -195 9 -30 0
-68 -1 -85 -1 -16 0 -41 -1 -55 -1 -14 0 -36 1 -50 1 -14 1 -34 1 -45 0 -11 0
-189 2 -395 5 -497 7 -1594 25 -1597 26 -16 2 9 35 65 88 l67 64 410 -6 c226
-3 520 -10 655 -16z m5076 -37 c-10 -10 -19 5 -10 18 6 11 8 11 12 0 2 -7 1
-15 -2 -18z m-296 -52 c0 -12 -39 -21 -45 -11 -3 5 3 11 12 13 29 8 33 7 33
-2z m145 -11 c4 -6 -5 -10 -19 -10 -14 0 -26 5 -26 10 0 6 9 10 19 10 11 0 23
-4 26 -10z m-5740 -67 c165 -4 318 -7 339 -5 22 1 47 0 55 -4 9 -4 60 -6 113
-4 99 2 138 -4 138 -21 0 -13 -34 -11 -48 3 -10 10 -15 10 -20 1 -4 -7 -13 -9
-20 -4 -8 4 -32 4 -55 0 -48 -9 -857 -12 -881 -3 -17 6 -22 35 -9 48 5 4 26 5
48 2 22 -3 175 -9 340 -13z m-471 -25 c-19 -33 -68 -89 -85 -99 -16 -8 -19 -6
-19 10 0 14 5 19 15 15 10 -4 15 0 15 12 0 21 48 74 67 74 9 0 11 -5 7 -12z
m56 -8 c0 -10 -9 -24 -21 -30 -20 -11 -20 -11 -4 19 18 36 25 39 25 11z m1270
5 c0 -13 -14 -15 -87 -13 -58 2 -88 7 -91 16 -3 9 19 12 87 12 75 0 91 -3 91
-15z m328 -2 c45 -3 82 -10 82 -14 0 -5 -35 -9 -77 -9 -129 0 -303 12 -303 22
0 9 179 11 298 1z m141 -7 c8 -10 9 -16 1 -21 -13 -8 -30 3 -30 21 0 18 14 18
29 0z m53 -8 c-9 -9 -15 -9 -24 0 -9 9 -7 12 12 12 19 0 21 -3 12 -12z m226 6
c44 -12 21 -24 -45 -24 -84 0 -144 10 -137 21 6 10 147 12 182 3z m132 -14 c0
-12 -45 -24 -65 -16 -29 11 -15 26 25 26 22 0 40 -4 40 -10z m120 -5 c0 -15
-43 -12 -48 3 -3 10 4 13 22 10 15 -2 26 -7 26 -13z m674 -6 c143 -5 262 -11
264 -14 11 -10 -13 -26 -32 -21 -11 4 -172 11 -356 16 -354 10 -450 17 -415
31 20 8 62 7 539 -12z m-2734 6 c0 -11 -131 -138 -200 -194 -41 -33 -84 -69
-95 -79 -31 -29 -68 -52 -83 -52 -11 0 -13 13 -10 60 l4 61 99 99 99 99 85 4
c48 1 89 4 94 5 4 1 7 0 7 -3z m3135 -25 c4 -6 -7 -10 -24 -10 -17 0 -31 5
-31 10 0 6 11 10 24 10 14 0 28 -4 31 -10z m354 -5 c1 -2 0 -8 -3 -13 -4 -6
-48 -8 -109 -5 -120 5 -147 10 -147 24 0 8 37 9 128 4 70 -4 129 -9 131 -10z
m-286 -2 c-7 -2 -19 -2 -25 0 -7 3 -2 5 12 5 14 0 19 -2 13 -5z m576 -12 c7
-5 9 -10 5 -12 -19 -8 -264 3 -264 12 0 11 240 12 259 0z m-4074 -21 c-10 -11
-23 -20 -29 -20 -6 0 0 9 14 20 32 25 38 25 15 0z m4205 10 c0 -13 -80 -13
-100 0 -11 7 2 10 43 10 31 0 57 -4 57 -10z m155 -1 c4 -6 5 -13 2 -16 -9 -9
-107 8 -101 18 7 13 91 11 99 -2z m1902 -91 c54 -36 130 -82 170 -102 70 -35
71 -36 82 -86 16 -75 15 -83 -11 -74 -46 13 -163 71 -174 85 -6 8 -15 28 -19
44 -8 27 -9 28 -12 8 -3 -13 -10 -23 -17 -23 -30 0 -235 161 -257 202 -11 20
-9 21 64 16 73 -5 79 -7 174 -70z m226 -55 c-6 -2 -45 14 -85 36 -117 64 -122
76 -8 20 58 -29 100 -54 93 -56z m1 101 c9 -3 16 -10 16 -15 0 -14 -26 -10
-40 6 -13 16 -3 20 24 9z m-6544 -8 c0 -3 -4 -8 -10 -11 -5 -3 -10 -1 -10 4 0
6 5 11 10 11 6 0 10 -2 10 -4z m-73 -193 c-3 -10 -5 -2 -5 17 0 19 2 27 5 18
2 -10 2 -26 0 -35z m-52 -73 c-9 -39 -21 -70 -25 -70 -7 0 12 107 26 144 16
42 15 -7 -1 -74z m-2641 -159 c-3 -3 -7 5 -11 17 -6 24 -23 30 -24 10 0 -7 -4
-4 -9 7 -12 27 -12 78 -1 71 5 -4 7 13 5 36 -3 29 4 13 20 -47 14 -49 23 -92
20 -94z m3043 123 c-3 -3 -12 -4 -19 -1 -8 3 -5 6 6 6 11 1 17 -2 13 -5z m140
0 c-3 -3 -12 -4 -19 -1 -8 3 -5 6 6 6 11 1 17 -2 13 -5z m5776 -81 c-7 -2 -21
-2 -30 0 -10 3 -4 5 12 5 17 0 24 -2 18 -5z m-6418 -52 c-7 -22 -21 -52 -30
-68 -15 -26 -15 -26 -9 -3 4 14 13 37 20 52 8 15 14 34 14 43 0 8 4 15 10 15
5 0 3 -17 -5 -39z m6913 -43 c21 -61 27 -87 17 -77 -10 11 -54 139 -47 139 4
0 17 -28 30 -62z m-6882 -7 c-3 -4 -10 -21 -16 -36 -6 -15 -13 -25 -16 -22 -6
6 23 67 32 67 3 0 3 -4 0 -9z m-205 -278 c-18 -31 -70 -88 -71 -77 0 10 67 94
76 94 3 0 0 -8 -5 -17z m-2071 -114 c0 -6 -4 -7 -10 -4 -5 3 -10 11 -10 16 0
6 5 7 10 4 6 -3 10 -11 10 -16z m-80 -19 c0 -5 -2 -10 -4 -10 -3 0 -8 5 -11
10 -3 6 -1 10 4 10 6 0 11 -4 11 -10z m179 -62 c90 -83 163 -133 289 -196 210
-106 315 -132 572 -141 l195 -7 -185 -2 c-253 -2 -367 23 -595 133 -109 52
-252 153 -324 229 -53 55 -16 43 48 -16z m-333 11 c98 4 105 -15 10 -24 -74
-7 -124 5 -111 26 4 5 12 6 18 2 7 -4 44 -6 83 -4z m2083 -55 c-46 -49 -272
-184 -286 -170 -3 2 37 29 89 59 51 31 118 73 148 95 64 47 84 53 49 16z
m-1703 -60 c41 -31 74 -61 74 -67 0 -5 -8 -3 -17 4 -17 13 -118 95 -137 111
-6 4 -6 8 -2 8 5 0 42 -25 82 -56z m-65 9 c13 -15 12 -15 -8 -4 -24 12 -29 21
-14 21 5 0 15 -7 22 -17z m1669 -77 c0 -2 -7 -7 -16 -10 -8 -3 -12 -2 -9 4 6
10 25 14 25 6z m-1915 -26 c3 -5 1 -10 -4 -10 -6 0 -11 5 -11 10 0 6 2 10 4
10 3 0 8 -4 11 -10z m207 -8 c9 -9 -2 -12 -54 -12 -71 0 -98 6 -98 22 0 14
137 5 152 -10z m258 -2 c0 -5 -2 -10 -4 -10 -3 0 -8 5 -11 10 -3 6 -1 10 4 10
6 0 11 -4 11 -10z m1350 -21 c-55 -34 -221 -97 -328 -124 -90 -23 -284 -46
-271 -32 3 4 57 13 121 22 125 16 254 53 400 115 104 44 130 50 78 19z m370
17 c0 -3 -4 -8 -10 -11 -5 -3 -10 -1 -10 4 0 6 5 11 10 11 6 0 10 -2 10 -4z
m-480 -11 c0 -5 -55 -35 -65 -35 -14 0 -3 18 18 28 24 11 47 15 47 7z m-1636
-50 c-30 -22 -6 -35 66 -35 68 0 106 -16 53 -22 -56 -6 -124 8 -146 31 -21 21
-21 23 -4 36 11 7 25 11 33 8 12 -4 12 -7 -2 -18z m184 8 c-21 -2 -55 -2 -75
0 -21 2 -4 4 37 4 41 0 58 -2 38 -4z m1537 -22 c-12 -12 -65 -25 -65 -17 0 8
39 24 60 25 9 1 10 -2 5 -8z m-1120 -19 c-3 -3 -11 0 -18 7 -9 10 -8 11 6 5
10 -3 15 -9 12 -12z m-300 -12 c14 -6 -3 -9 -53 -9 -46 -1 -71 3 -67 9 7 12
92 12 120 0z m1070 0 c-3 -5 -18 -10 -33 -10 -21 0 -24 2 -12 10 20 13 53 13
45 0z m182 -36 c-3 -3 -12 -4 -19 -1 -8 3 -5 6 6 6 11 1 17 -2 13 -5z m-714
-21 c-7 -2 -19 -2 -25 0 -7 3 -2 5 12 5 14 0 19 -2 13 -5z m219 -15 c-9 -9
-15 -9 -24 0 -9 9 -7 12 12 12 19 0 21 -3 12 -12z m788 -9 c18 -10 -67 -12
-123 -2 -27 4 -34 9 -25 14 15 10 125 1 148 -12z m125 1 c3 -5 -3 -10 -14 -10
-12 0 -21 5 -21 10 0 6 6 10 14 10 8 0 18 -4 21 -10z m-1682 -47 c-7 -2 -21
-2 -30 0 -10 3 -4 5 12 5 17 0 24 -2 18 -5z m9784 -100 c76 -5 81 -7 58 -19
-19 -10 -33 -10 -53 -3 -15 6 -56 9 -91 7 -45 -2 -66 1 -68 10 -5 14 29 15
154 5z m174 -23 c13 -10 19 -19 12 -20 -18 0 -63 22 -63 32 0 14 27 9 51 -12z
m424 -20 c3 -5 1 -10 -4 -10 -6 0 -11 5 -11 10 0 6 2 10 4 10 3 0 8 -4 11 -10z"/>
<path d="M780 5731 c0 -12 81 -22 111 -13 21 5 20 7 -16 14 -55 10 -95 10 -95
-1z"/>
<path d="M4420 5560 c20 -13 63 -13 55 0 -3 6 -21 10 -38 10 -24 0 -28 -3 -17
-10z"/>
<path d="M4850 5334 c0 -14 27 -50 33 -44 3 3 -3 16 -13 30 -11 14 -20 20 -20
14z"/>
<path d="M5100 5121 c0 -15 60 -61 81 -61 29 0 23 16 -11 30 -16 7 -35 18 -41
26 -13 16 -29 19 -29 5z"/>
<path d="M5245 5022 c6 -5 53 -17 106 -26 118 -20 130 -20 106 -2 -10 8 -46
17 -80 21 -34 3 -80 8 -102 11 -27 4 -37 3 -30 -4z"/>
<path d="M5528 4983 c6 -2 18 -2 25 0 6 3 1 5 -13 5 -14 0 -19 -2 -12 -5z"/>
<path d="M5580 4980 c0 -9 79 -20 144 -20 79 1 34 17 -61 22 -46 3 -83 2 -83
-2z"/>
<path d="M5668 4893 c18 -2 45 -2 60 0 15 2 0 4 -33 4 -33 0 -45 -2 -27 -4z"/>
<path d="M5565 4870 c-4 -6 6 -10 24 -10 16 0 33 5 36 10 4 6 -6 10 -24 10
-16 0 -33 -4 -36 -10z"/>
<path d="M1730 5101 c8 -5 44 -10 80 -11 83 -3 102 0 70 10 -35 11 -169 12
-150 1z"/>
<path d="M5883 4963 c15 -2 39 -2 55 0 15 2 2 4 -28 4 -30 0 -43 -2 -27 -4z"/>
<path d="M1505 3951 c11 -5 34 -11 50 -12 17 -1 -10 -5 -59 -10 -49 -4 -94
-13 -100 -19 -8 -9 -6 -11 9 -7 46 13 367 18 485 8 173 -15 485 -91 579 -141
36 -19 85 -40 94 -40 26 0 -20 30 -85 55 -73 28 -132 66 -78 50 14 -4 72 -29
129 -56 57 -27 106 -47 109 -45 12 13 -272 138 -344 152 -37 7 -38 6 -24 -11
14 -16 13 -17 -5 -12 -11 3 -39 11 -63 18 -25 7 -38 15 -31 20 14 8 3 12 -96
34 -80 18 -606 33 -570 16z m831 -96 c10 -8 14 -15 8 -15 -5 0 -19 7 -30 15
-10 8 -14 15 -8 15 5 0 19 -7 30 -15z"/>
<path d="M1295 3900 c-18 -8 -18 -9 5 -9 14 0 34 4 45 9 18 8 18 9 -5 9 -14 0
-34 -4 -45 -9z"/>
<path d="M2205 3900 c3 -5 8 -10 11 -10 2 0 4 5 4 10 0 6 -5 10 -11 10 -5 0
-7 -4 -4 -10z"/>
<path d="M1061 3854 c-19 -8 -32 -16 -29 -19 5 -5 98 24 98 31 0 9 -37 3 -69
-12z"/>
<path d="M938 3833 c-21 -2 -38 -9 -38 -14 0 -11 65 -2 90 12 17 9 20 9 -52 2z"/>
<path d="M810 3810 c-12 -8 -9 -10 12 -10 15 0 30 5 33 10 8 13 -25 13 -45 0z"/>
<path d="M2648 3673 c7 -3 16 -2 19 1 4 3 -2 6 -13 5 -11 0 -14 -3 -6 -6z"/>
<path d="M3187 3374 c-16 -19 -26 -34 -22 -34 16 0 65 35 65 47 0 24 -16 19
-43 -13z"/>
<path d="M3218 3322 c-26 -15 -37 -32 -22 -32 12 0 64 34 64 42 0 12 -12 9
-42 -10z"/>
<path d="M3243 3279 c-29 -18 -43 -39 -28 -39 8 0 85 50 85 55 0 11 -27 3 -57
-16z"/>
<path d="M11890 3541 c0 -34 18 -51 31 -30 17 26 10 59 -11 59 -15 0 -20 -7
-20 -29z"/>
<path d="M1779 3231 c-2 -5 -40 -12 -84 -14 -44 -2 -98 -9 -120 -16 -387 -124
-635 -321 -813 -647 -70 -128 -94 -199 -118 -355 -33 -219 -19 -401 47 -602
47 -145 106 -259 183 -357 63 -79 211 -230 227 -230 4 0 28 -14 51 -30 56 -39
260 -122 368 -148 124 -30 275 -46 346 -36 32 4 76 7 96 5 20 -1 50 4 65 13
15 8 53 23 83 32 83 26 278 116 370 170 112 67 222 180 318 326 58 90 96 176
149 343 l38 120 0 220 0 220 -38 118 c-71 224 -152 363 -297 507 -176 176
-408 291 -667 330 -87 13 -147 25 -179 35 -12 4 -23 2 -25 -4z m144 -48 c-13
-2 -33 -2 -45 0 -13 2 -3 4 22 4 25 0 35 -2 23 -4z m137 -25 c9 -5 0 -6 -25
-2 -22 4 -44 10 -50 15 -12 11 53 0 75 -13z m-452 6 c-3 -3 -34 -12 -68 -20
-33 -8 -91 -30 -129 -49 -37 -19 -70 -35 -74 -35 -7 0 -155 -97 -199 -130 -14
-11 -29 -20 -32 -20 -4 0 -20 -16 -37 -35 -17 -19 -37 -35 -45 -35 -8 0 -18
-8 -21 -17 -4 -10 -30 -43 -59 -73 -29 -30 -64 -68 -79 -85 l-26 -30 21 42
c26 55 192 227 284 297 90 67 232 139 338 171 78 22 138 32 126 19z m463 -58
c169 -44 294 -103 424 -201 40 -30 78 -55 84 -55 6 0 11 -4 11 -9 0 -5 33 -48
74 -97 135 -160 225 -371 247 -582 20 -196 6 -327 -58 -527 -15 -50 -24 -70
-78 -176 -60 -121 -253 -326 -361 -385 -21 -12 -64 -36 -94 -53 -60 -34 -80
-38 -80 -18 0 19 36 49 105 87 119 65 255 184 322 282 84 122 141 247 169 371
61 267 35 524 -77 757 -48 102 -122 200 -221 296 -116 113 -232 178 -434 245
-92 30 -111 32 -264 36 -165 5 -165 5 -287 -31 -146 -42 -253 -94 -360 -175
-94 -70 -210 -190 -259 -266 -69 -108 -138 -286 -169 -433 -46 -224 23 -579
150 -772 49 -74 54 -85 38 -91 -16 -5 -16 -7 4 -17 12 -7 28 -12 37 -12 8 0
18 -9 21 -20 3 -11 11 -20 16 -20 5 0 9 -6 9 -12 0 -7 24 -27 54 -45 29 -18
82 -54 117 -80 35 -26 91 -60 124 -74 33 -14 65 -35 70 -46 8 -16 15 -19 27
-12 11 6 37 4 74 -6 152 -39 369 -39 549 2 39 8 81 16 95 17 14 1 31 5 38 10
19 12 27 -1 12 -19 -16 -19 -152 -60 -247 -74 -39 -6 -136 -11 -215 -11 -125
0 -156 3 -233 26 -50 14 -110 36 -134 50 -24 13 -49 24 -56 24 -6 0 -20 9 -30
20 -10 11 -21 18 -24 15 -4 -2 -20 5 -37 16 -16 11 -44 26 -63 34 -43 19 -201
172 -256 250 -53 74 -125 218 -153 305 -46 143 -66 328 -39 371 10 17 9 22 -4
29 -31 18 23 280 92 447 78 186 268 396 468 517 132 80 246 118 421 140 90 11
286 -3 381 -28z m138 8 c9 -10 -53 6 -63 17 -6 5 4 5 24 -1 18 -5 35 -12 39
-16z m-134 -88 c98 -26 325 -127 325 -146 0 -9 -47 8 -102 36 -17 9 -28 10
-28 4 0 -5 5 -10 10 -10 13 0 137 -76 166 -102 33 -29 40 -21 9 12 -16 17 -25
30 -20 30 13 0 205 -192 205 -204 0 -5 -11 1 -25 14 -38 36 -30 18 34 -78 32
-48 73 -122 90 -164 56 -143 84 -344 70 -502 -9 -94 -50 -249 -69 -261 -6 -3
-10 -15 -10 -25 0 -41 -117 -240 -141 -240 -15 0 -10 14 24 65 95 142 98 134
-83 215 -77 35 -138 65 -136 68 3 3 28 -5 55 -17 54 -23 71 -26 71 -12 0 8
-136 72 -333 156 -87 38 -89 39 -83 68 3 16 6 42 6 57 0 26 5 29 48 38 26 6
69 14 96 18 70 10 51 -10 -23 -25 -65 -13 -108 -40 -99 -62 3 -8 48 -37 99
-66 124 -68 470 -225 484 -219 17 6 43 105 61 233 17 114 14 157 -9 166 -7 3
-71 -1 -143 -8 -174 -18 -267 -23 -250 -13 7 4 46 11 85 14 39 4 74 11 77 15
8 13 -59 10 -249 -10 -140 -14 -170 -15 -179 -4 -7 8 -7 17 -2 22 5 4 86 13
179 20 355 26 391 29 438 36 45 7 47 9 47 40 0 63 -90 306 -123 333 -14 12
-21 12 -45 -1 -30 -14 -249 -174 -290 -211 -23 -20 -23 -20 -3 -36 13 -9 22
-32 26 -60 5 -41 4 -43 -7 -20 -12 24 -12 23 -16 -20 l-4 -45 -19 40 -19 40 5
-37 6 -38 -47 0 -46 0 32 36 c21 24 30 43 26 56 -3 14 1 22 15 25 10 3 19 9
19 14 0 23 -33 3 -104 -61 -42 -38 -81 -70 -86 -70 -21 0 -8 38 23 67 41 38
229 181 287 218 25 16 39 30 32 33 -6 2 -29 -9 -50 -26 -96 -75 -322 -213
-339 -208 -10 4 -33 19 -52 35 l-35 28 19 49 c10 27 49 114 87 193 37 79 68
146 68 148 0 18 -25 -19 -49 -72 -30 -65 -129 -246 -153 -278 -11 -15 -22 -17
-65 -11 -43 5 -53 11 -62 33 -18 45 -41 171 -48 263 -3 49 -11 91 -16 95 -6 4
-8 -39 -4 -123 11 -210 -12 -110 -29 130 -18 256 -21 272 -59 269 -84 -6 -337
-114 -343 -146 -4 -19 84 -169 139 -237 20 -25 54 -71 75 -104 74 -112 82
-122 119 -155 26 -22 45 -31 63 -29 25 3 27 7 30 61 4 72 22 75 22 3 0 -59 -4
-65 -70 -90 l-45 -18 -23 29 c-13 15 -56 71 -94 123 -39 52 -87 116 -106 142
-42 56 -56 56 -20 1 57 -87 62 -97 51 -90 -6 4 -48 67 -94 140 -100 161 -110
172 -148 152 -55 -28 -192 -198 -226 -279 -18 -43 -5 -63 64 -95 35 -17 53
-32 60 -52 11 -32 25 -40 220 -124 237 -101 219 -90 214 -144 -3 -25 -12 -51
-20 -57 -7 -7 -51 -17 -96 -23 -309 -43 -468 -77 -302 -66 44 3 130 12 190 20
158 20 202 23 212 16 5 -3 16 -26 25 -49 20 -50 14 -66 -36 -99 -17 -11 -74
-56 -127 -100 -101 -84 -167 -129 -175 -120 -3 3 34 35 83 73 236 182 260 206
233 239 -12 14 -35 16 -159 12 -152 -4 -459 -40 -492 -58 -10 -5 -19 -14 -19
-20 0 -15 26 -107 57 -202 28 -89 26 -118 -6 -67 -31 51 -68 175 -82 276 -14
109 -6 316 16 399 62 233 197 445 372 585 45 36 79 67 77 69 -8 9 -94 -59
-176 -139 -49 -47 -88 -82 -88 -77 0 17 144 158 205 202 118 83 294 158 414
174 121 17 324 6 436 -23z m-497 -126 c20 0 31 -4 27 -10 -3 -5 -40 -10 -81
-10 -92 0 -98 -18 -6 -22 l67 -3 -77 -9 c-84 -9 -138 -2 -120 16 17 17 115 47
137 43 11 -3 35 -5 53 -5z m82 -56 c0 -8 -4 -12 -10 -9 -5 3 -10 13 -10 21 0
8 5 12 10 9 6 -3 10 -13 10 -21z m-290 -19 c8 -9 9 -15 2 -15 -6 0 -14 5 -18
12 -5 7 -11 5 -21 -7 -10 -15 -13 -16 -13 -4 0 31 29 39 50 14z m107 -56 c34
-13 28 -29 -12 -29 -42 0 -105 24 -105 41 0 12 72 5 117 -12z m113 1 c0 -5 -4
-10 -10 -10 -5 0 -10 5 -10 10 0 6 5 10 10 10 6 0 10 -4 10 -10z m96 -143 c5
-64 3 -91 -6 -102 -19 -23 -49 -18 -60 10 -8 20 -24 132 -25 169 0 14 69 33
77 21 4 -6 10 -50 14 -98z m-451 -3 c21 -33 15 -39 -29 -24 -39 12 -43 19 -24
38 19 19 34 14 53 -14z m-299 -94 c-31 -49 -56 -94 -56 -100 0 -5 -4 -12 -10
-15 -14 -8 -3 18 39 95 43 80 72 123 78 116 3 -3 -20 -46 -51 -96z m597 80 c3
-11 1 -20 -4 -20 -5 0 -9 2 -9 4 0 2 -3 11 -6 20 -3 9 -2 16 4 16 5 0 12 -9
15 -20z m-709 -12 c-6 -21 -34 -56 -34 -43 0 10 30 65 36 65 3 0 2 -10 -2 -22z
m268 -20 c-21 -21 -32 -3 -15 22 16 22 18 23 21 6 2 -10 -1 -23 -6 -28z m1614
-31 c31 -62 19 -52 -21 17 -15 27 -22 45 -16 42 6 -4 23 -31 37 -59z m-1466
-17 c20 -6 21 -8 5 -8 -11 0 -29 3 -40 8 -25 11 1 11 35 0z m-69 -18 c-7 -2
-18 1 -23 6 -8 8 -4 9 13 5 13 -4 18 -8 10 -11z m-401 -17 c0 -8 -4 -15 -10
-15 -5 0 -7 7 -4 15 4 8 8 15 10 15 2 0 4 -7 4 -15z m400 -15 c0 -5 -9 -6 -20
-3 -11 3 -20 9 -20 13 0 5 9 6 20 3 11 -3 20 -9 20 -13z m519 -23 c2 -17 4
-52 5 -77 1 -57 -20 -61 -48 -9 -20 36 -20 36 2 64 12 15 22 34 22 41 0 28 15
13 19 -19z m-314 -47 c3 -5 -1 -10 -9 -10 -8 0 -18 5 -21 10 -3 6 1 10 9 10 8
0 18 -4 21 -10z m1205 -10 c0 -5 -22 -10 -50 -10 -27 0 -50 5 -50 10 0 6 23
10 50 10 28 0 50 -4 50 -10z m205 -10 c3 -5 1 -10 -4 -10 -6 0 -11 5 -11 10 0
6 2 10 4 10 3 0 8 -4 11 -10z m-2085 -96 c-11 -43 -20 -90 -20 -106 0 -15 -4
-28 -10 -28 -13 0 -13 13 5 90 20 83 36 133 41 127 3 -3 -4 -40 -16 -83z
m1795 76 c3 -5 1 -10 -4 -10 -6 0 -11 5 -11 10 0 6 2 10 4 10 3 0 8 -4 11 -10z
m80 0 c-3 -5 -15 -10 -26 -10 -10 0 -19 5 -19 10 0 6 12 10 26 10 14 0 23 -4
19 -10z m68 3 c-7 -2 -21 -2 -30 0 -10 3 -4 5 12 5 17 0 24 -2 18 -5z m-1287
-13 c8 0 14 -4 14 -10 0 -15 -24 -12 -46 6 -17 14 -17 15 -1 10 10 -3 25 -6
33 -6z m-515 -27 c-8 -15 -10 -15 -11 -2 0 17 10 32 18 25 2 -3 -1 -13 -7 -23z
m689 17 c0 -5 -2 -10 -4 -10 -3 0 -8 5 -11 10 -3 6 -1 10 4 10 6 0 11 -4 11
-10z m940 -7 c35 -23 80 -65 80 -75 0 -4 -5 -8 -11 -8 -7 0 -17 -7 -24 -17 -7
-9 -17 -13 -24 -9 -9 6 -9 11 -1 21 13 15 6 35 -12 35 -6 0 -26 9 -45 21 -27
17 -31 24 -22 35 15 18 29 18 59 -3z m235 7 c3 -5 1 -10 -4 -10 -6 0 -11 5
-11 10 0 6 2 10 4 10 3 0 8 -4 11 -10z m-1484 -41 c52 -23 150 -63 219 -88 69
-26 125 -51 124 -56 -1 -23 -44 -13 -178 40 -172 69 -269 115 -274 133 -6 19
7 15 109 -29z m1448 37 c-2 -2 -35 -6 -74 -10 -48 -4 -65 -3 -55 4 13 9 139
15 129 6z m-1145 -58 c20 -31 31 -78 18 -78 -5 0 -26 7 -46 15 -39 17 -46 38
-19 67 21 24 29 23 47 -4z m64 -32 c19 -32 19 -46 1 -46 -6 0 -39 72 -39 86 0
12 19 -8 38 -40z m393 -37 c57 -45 88 -104 94 -180 l6 -64 -24 90 c-22 81 -28
93 -71 131 -25 24 -62 48 -81 54 -19 6 -35 16 -35 21 0 14 67 -17 111 -52z
m753 -1 c4 -24 3 -38 -4 -38 -5 0 -10 19 -10 42 0 49 5 47 14 -4z m-884 17 c0
-8 -7 -15 -15 -15 -8 0 -15 7 -15 15 0 8 7 15 15 15 8 0 15 -7 15 -15z m605
-25 c4 -6 -6 -10 -22 -10 -22 0 -25 2 -13 10 19 12 27 12 35 0z m-1655 -35 c0
-14 -4 -25 -9 -25 -4 0 -6 11 -3 25 2 14 6 25 8 25 2 0 4 -11 4 -25z m1097
-24 c48 -35 73 -68 73 -96 -1 -15 -6 -11 -20 16 -18 34 -52 68 -96 96 -11 6
-14 12 -8 12 6 1 29 -12 51 -28z m-72 -2 c40 -11 75 -35 75 -51 0 -4 -22 3
-50 17 -27 14 -66 25 -87 26 -30 0 -34 2 -18 9 27 12 34 12 80 -1z m-204 -14
c0 -5 -9 -11 -21 -13 -20 -3 -27 8 -13 22 10 9 34 3 34 -9z m199 -30 c34 -17
34 -19 20 -46 -10 -18 -12 -18 -35 -3 -26 17 -86 22 -122 9 -35 -11 -28 12 10
35 38 24 87 26 127 5z m208 -23 c2 -7 -6 -12 -17 -12 -21 0 -27 11 -14 24 9 9
26 2 31 -12z m-1358 -37 c0 -8 -4 -15 -10 -15 -5 0 -10 7 -10 15 0 8 5 15 10
15 6 0 10 -7 10 -15z m1040 10 c0 -2 -9 -9 -20 -15 -12 -6 -20 -7 -20 -1 0 5
8 12 18 14 9 3 18 5 20 6 1 0 2 -1 2 -4z m1050 -64 c0 -40 -18 -82 -37 -89
-17 -5 -18 119 -1 136 19 19 38 -5 38 -47z m-840 39 c0 -5 -6 -7 -13 -4 -8 3
-20 -2 -27 -11 -16 -19 -36 -19 -43 -1 -4 10 3 16 21 19 50 8 62 7 62 -3z
m-149 -23 c65 -43 43 -133 -37 -153 -23 -6 -32 -2 -56 25 -38 42 -37 83 1 122
35 35 48 36 92 6z m540 -77 c-9 -23 -10 -23 -10 11 -1 20 2 39 7 43 11 12 14
-27 3 -54z m-35 36 c7 -17 -12 -56 -27 -56 -6 0 -25 10 -41 22 -29 20 -30 22
-12 35 24 17 73 17 80 -1z m349 -6 c4 -6 -8 -10 -29 -10 -19 0 -38 5 -41 10
-4 6 8 10 29 10 19 0 38 -4 41 -10z m-1017 -48 c2 -7 -6 -12 -17 -12 -21 0
-27 11 -14 24 9 9 26 2 31 -12z m868 -2 c36 -16 45 -23 36 -32 -9 -9 -25 -8
-67 7 -31 10 -60 24 -66 32 -18 21 41 17 97 -7z m-556 -8 c0 -5 -11 -19 -25
-32 -28 -27 -36 -8 -8 22 17 19 33 24 33 10z m-75 -22 c-3 -5 -11 -10 -16 -10
-6 0 -7 5 -4 10 3 6 11 10 16 10 6 0 7 -4 4 -10z m-433 -35 c10 -40 3 -43 -16
-6 -19 36 -20 44 -4 39 7 -3 15 -17 20 -33z m586 24 c-2 -6 -8 -10 -13 -10 -5
0 -11 4 -13 10 -2 6 4 11 13 11 9 0 15 -5 13 -11z m569 5 c-3 -3 -12 -4 -19
-1 -8 3 -5 6 6 6 11 1 17 -2 13 -5z m-1087 -24 c-6 -11 -17 -20 -25 -20 -8 0
-15 9 -15 20 0 15 7 20 25 20 23 0 24 -2 15 -20z m752 -37 c60 -25 111 -49
114 -54 3 -6 -11 -2 -33 7 -78 34 -199 74 -225 74 -29 0 -38 14 -15 23 17 7
38 1 159 -50z m183 47 c3 -6 -1 -7 -9 -4 -18 7 -21 14 -7 14 6 0 13 -4 16 -10z
m314 -4 c9 -10 8 -15 -1 -18 -22 -7 -81 6 -86 20 -5 17 72 16 87 -2z m218 -43
c-3 -10 -5 -2 -5 17 0 19 2 27 5 18 2 -10 2 -26 0 -35z m-875 -39 c12 -26 45
-79 73 -118 28 -39 88 -123 133 -186 109 -154 121 -169 149 -187 24 -16 25
-15 79 38 69 68 71 46 2 -27 -80 -84 -287 -214 -343 -214 -11 0 -31 -7 -43
-16 -18 -12 -22 -13 -22 -1 0 8 45 37 103 65 56 29 116 60 134 70 l32 19 -22
30 c-12 17 -42 57 -67 88 -29 37 -40 60 -32 63 6 2 12 7 12 12 0 4 -56 85
-125 180 -69 95 -125 177 -125 183 0 10 29 47 36 47 2 0 14 -21 26 -46z m-788
8 c-56 -49 -254 -184 -265 -180 -12 4 -59 122 -59 150 0 9 5 20 11 24 18 11
187 32 269 33 l75 0 -31 -27z m345 -7 c54 -39 119 -65 162 -65 33 0 35 -2 43
-62 9 -59 -6 -63 -33 -10 -44 87 -69 78 -130 -42 -24 -47 -47 -86 -53 -86 -5
0 -8 46 -6 114 3 125 -3 143 -46 132 -13 -3 -87 -47 -163 -97 -205 -136 -142
-77 122 113 28 20 51 37 52 37 2 1 25 -15 52 -34z m159 13 c-6 -18 -28 -21
-28 -4 0 9 7 16 16 16 9 0 14 -5 12 -12z m382 -14 c11 -12 10 -18 -4 -32 -16
-16 -18 -16 -36 8 -11 14 -20 28 -20 33 0 13 47 7 60 -9z m534 -34 c11 -11 -1
-30 -20 -30 -16 0 -94 37 -94 45 0 7 104 -7 114 -15z m-705 -27 c44 -53 38
-61 -11 -18 l-43 36 -17 -22 c-10 -11 -18 -29 -18 -39 0 -26 -26 -45 -34 -24
-16 42 -7 65 37 84 23 11 45 20 49 20 3 0 20 -17 37 -37z m201 12 c-13 -14
-26 -23 -28 -20 -7 7 29 45 41 45 6 0 0 -11 -13 -25z m145 -16 l20 -20 -30 7
c-41 9 -65 23 -65 35 0 17 52 1 75 -22z m-765 -14 c0 -8 -4 -15 -9 -15 -13 0
-22 16 -14 24 11 11 23 6 23 -9z m1340 -1 c0 -8 -5 -12 -10 -9 -6 4 -8 11 -5
16 9 14 15 11 15 -7z m-483 -15 c26 -12 43 -23 37 -25 -15 -6 -87 21 -92 34
-5 16 -1 15 55 -9z m-896 -8 c13 -11 22 -22 19 -25 -3 -3 -19 6 -35 19 -17 13
-25 24 -19 25 7 0 22 -9 35 -19z m449 -35 c-13 -13 -45 17 -35 34 5 8 12 6 26
-6 13 -12 16 -21 9 -28z m-220 -2 c0 -17 -5 -24 -20 -24 -22 0 -25 12 -9 41
13 25 29 16 29 -17z m148 -249 l-1 -50 -7 45 c-5 25 -14 75 -20 112 -8 38 -9
78 -5 95 7 23 11 12 21 -62 7 -49 12 -112 12 -140z m437 207 c42 -14 50 -20
47 -40 -2 -14 10 -38 33 -67 34 -41 41 -75 17 -75 -5 0 -34 33 -65 73 -31 40
-65 81 -77 92 -20 18 -27 36 -12 34 4 0 30 -8 57 -17z m-885 -23 c0 -11 -12
-33 -27 -48 -21 -21 -28 -39 -29 -68 -1 -47 -80 -213 -101 -213 -30 0 -26 35
11 102 30 56 35 72 26 83 -18 21 -22 20 -73 -31 -36 -36 -52 -45 -74 -42 -54
6 -39 33 54 96 48 33 103 73 122 89 36 30 71 52 84 53 4 0 7 -9 7 -21z m109
-66 l-22 -23 26 0 c15 0 27 -5 27 -10 0 -6 -34 -87 -75 -180 -41 -93 -75 -176
-75 -185 0 -8 5 -24 12 -35 17 -27 6 -33 -28 -16 -16 7 -44 19 -63 25 -53 17
-140 71 -195 124 -28 26 -54 47 -58 47 -4 0 -8 5 -8 10 0 16 22 12 44 -9 38
-35 198 -131 209 -124 15 9 159 314 202 428 7 19 7 19 16 -4 8 -19 5 -29 -12
-48z m562 25 c15 -28 5 -21 -21 15 -15 20 -17 27 -6 18 9 -8 22 -23 27 -33z
m-981 -18 c-10 -24 -69 -82 -113 -111 -6 -4 4 -26 23 -52 17 -25 30 -52 28
-61 -5 -25 -131 134 -145 183 -7 24 -8 41 -2 41 5 0 9 -4 9 -8 0 -5 9 -18 20
-29 17 -19 23 -20 52 -10 18 7 36 17 41 24 4 7 14 10 22 7 8 -4 15 -2 15 4 0
5 12 22 27 36 31 31 41 20 23 -24z m1330 40 c0 -5 -4 -10 -9 -10 -6 0 -13 5
-16 10 -3 6 1 10 9 10 9 0 16 -4 16 -10z m50 -20 c0 -5 -4 -10 -10 -10 -5 0
-10 5 -10 10 0 6 5 10 10 10 6 0 10 -4 10 -10z m-693 -62 c-2 -13 -4 -5 -4 17
-1 22 1 32 4 23 2 -10 2 -28 0 -40z m203 10 c32 -34 73 -106 76 -134 3 -32 22
-54 45 -54 23 0 34 -36 17 -57 -11 -14 -127 -73 -142 -73 -3 0 -6 37 -9 83 -2
45 -10 109 -17 143 -11 53 -9 114 5 114 2 0 14 -10 25 -22z m159 -43 c0 -5 -9
1 -19 14 -11 13 -20 28 -20 35 0 6 9 0 20 -14 11 -14 20 -29 19 -35z m-450
-133 c7 -84 14 -159 17 -167 5 -11 -1 -15 -22 -15 -40 1 -165 17 -170 23 -7 7
27 87 37 87 5 0 9 9 9 21 0 27 65 176 87 201 9 10 20 15 23 11 4 -5 12 -77 19
-161z m-939 78 c0 -5 -2 -10 -4 -10 -3 0 -8 5 -11 10 -3 6 -1 10 4 10 6 0 11
-4 11 -10z m1050 -53 c0 -13 15 -45 34 -72 28 -39 36 -61 41 -114 3 -36 8 -79
11 -96 l4 -30 -16 23 c-20 27 -34 28 -34 3 0 -33 -27 -45 -110 -45 -43 -1 -82
3 -86 7 -15 15 21 27 81 27 92 0 90 -4 71 152 -19 158 -19 168 -6 168 6 0 10
-10 10 -23z m-600 -21 c0 -3 -4 -8 -10 -11 -5 -3 -10 -1 -10 4 0 6 5 11 10 11
6 0 10 -2 10 -4z m657 -28 c-3 -8 -6 -5 -6 6 -1 11 2 17 5 13 3 -3 4 -12 1
-19z m-776 -95 c13 -16 12 -17 -3 -4 -10 7 -18 15 -18 17 0 8 8 3 21 -13z
m920 -136 c-13 -13 -26 -3 -16 12 3 6 11 8 17 5 6 -4 6 -10 -1 -17z m-533 -9
c9 -9 12 -9 12 1 0 7 5 9 10 6 16 -10 11 -25 -9 -25 -10 0 -24 7 -31 15 -15
18 1 20 18 3z m480 0 c-3 -7 -13 -15 -24 -17 -16 -3 -17 -1 -5 13 16 19 34 21
29 4z m-398 -14 c0 -8 -5 -12 -10 -9 -6 4 -8 11 -5 16 9 14 15 11 15 -7z m68
-12 c2 -7 -6 -12 -17 -12 -21 0 -27 11 -14 24 9 9 26 2 31 -12z m142 -46 c0
-11 -19 -15 -25 -6 -3 5 1 10 9 10 9 0 16 -2 16 -4z m-415 -66 c8 -13 -5 -13
-25 0 -13 8 -13 10 2 10 9 0 20 -4 23 -10z m185 -50 c13 -9 13 -10 0 -9 -8 1
-26 5 -40 9 l-25 8 25 1 c14 0 32 -4 40 -9z"/>
<path d="M1625 3030 c-49 -11 -117 -29 -150 -41 -75 -27 -179 -79 -172 -85 3
-3 22 3 44 14 123 62 335 112 486 113 61 0 85 3 72 9 -35 15 -186 9 -280 -10z"/>
<path d="M2020 3010 c20 -13 43 -13 35 0 -3 6 -16 10 -28 10 -18 0 -19 -2 -7
-10z"/>
<path d="M2102 2989 c25 -14 98 -39 98 -33 0 8 -83 44 -100 43 -12 0 -11 -2 2
-10z"/>
<path d="M1780 2976 c-9 -11 -9 -33 -1 -88 6 -40 15 -140 21 -223 6 -82 15
-185 21 -228 12 -80 36 -127 58 -112 20 12 97 135 135 216 19 41 44 90 55 109
11 19 41 84 67 143 45 104 46 109 28 122 -26 19 -152 51 -253 64 -108 14 -116
14 -131 -3z m140 -61 c-7 -9 -15 -13 -17 -11 -7 7 7 26 19 26 6 0 6 -6 -2 -15z
m22 -47 c4 -27 48 -39 48 -14 0 18 6 19 35 6 11 -5 14 -9 8 -9 -7 -1 -13 -5
-13 -11 0 -5 18 -10 39 -10 42 0 55 -9 45 -33 -12 -33 -93 -46 -187 -30 -35 5
-38 8 -32 32 4 14 13 33 21 42 8 8 14 23 14 32 0 25 18 20 22 -5z m-101 -157
c10 -118 9 -154 -5 -140 -6 6 -26 200 -26 252 0 27 3 38 10 31 5 -5 15 -70 21
-143z m289 139 c0 -5 -7 -10 -16 -10 -8 0 -12 5 -9 10 3 6 10 10 16 10 5 0 9
-4 9 -10z m-253 -125 c9 -25 -4 -29 -17 -6 -7 15 -7 21 0 21 6 0 13 -7 17 -15z
m153 -67 c0 -7 -9 -32 -20 -55 -14 -33 -25 -43 -43 -43 -36 0 -56 21 -63 68
l-7 42 67 0 c46 0 66 -4 66 -12z m-130 -114 c0 -2 -9 -4 -20 -4 -11 0 -20 4
-20 9 0 5 9 7 20 4 11 -3 20 -7 20 -9z m29 -30 c2 -2 -14 -4 -37 -4 -23 0 -42
4 -42 9 0 9 69 4 79 -5z m10 -38 c13 -9 -3 -40 -42 -84 l-21 -23 -13 23 c-7
13 -12 42 -13 64 l0 41 38 -7 c21 -4 44 -10 51 -14z"/>
<path d="M2262 2847 c-22 -26 -192 -381 -221 -462 -46 -126 -43 -138 30 -114
31 11 346 213 462 296 l47 35 -17 30 c-39 66 -234 228 -274 228 -9 0 -21 -6
-27 -13z m43 -30 c0 -9 6 -22 13 -29 6 -6 12 -19 12 -28 0 -9 9 -35 20 -58 26
-52 25 -72 -1 -79 -18 -5 -20 -11 -16 -39 4 -25 2 -34 -8 -34 -17 0 -28 34
-20 60 9 29 -3 43 -21 25 -8 -8 -14 -18 -12 -22 1 -4 -11 -11 -28 -14 -82 -18
-101 0 -31 30 24 11 53 31 64 45 12 14 27 26 34 26 8 0 3 9 -11 20 -20 16 -22
22 -11 29 10 7 8 12 -10 24 -20 14 -21 19 -11 42 13 28 37 29 37 2z m92 -53
c-9 -9 -28 6 -21 18 4 6 10 6 17 -1 6 -6 8 -13 4 -17z m-155 -26 c-7 -7 -12
-8 -12 -2 0 14 12 26 19 19 2 -3 -1 -11 -7 -17z m186 -15 c-2 -10 -10 -18 -18
-18 -8 0 -16 8 -18 18 -2 12 3 17 18 17 15 0 20 -5 18 -17z m81 -70 c44 -53
38 -60 -9 -13 -22 22 -40 42 -40 45 0 15 22 0 49 -32z m-307 -135 c-7 -7 -12
-8 -12 -2 0 6 3 14 7 17 3 4 9 5 12 2 2 -3 -1 -11 -7 -17z m-2 -100 c30 -29
16 -36 -20 -9 -34 25 -40 17 -10 -14 l21 -22 -33 -25 c-43 -32 -78 -51 -85
-44 -9 8 18 77 33 83 8 3 21 0 29 -7 10 -8 15 -9 15 -2 0 6 -4 14 -10 17 -16
10 -12 58 7 85 l17 24 7 -32 c4 -19 17 -43 29 -54z m98 46 c26 -7 30 -24 6
-24 -9 0 -23 -8 -30 -17 -13 -17 -15 -17 -24 -2 -5 9 -21 20 -35 23 -14 4 -23
11 -20 16 7 11 68 13 103 4z"/>
<path d="M2530 2735 c13 -14 26 -23 28 -20 7 7 -29 45 -41 45 -6 0 0 -11 13
-25z"/>
<path d="M907 2328 c-8 -13 -21 -50 -30 -83 -8 -33 -20 -79 -26 -101 -16 -60
-14 -203 2 -210 16 -6 405 49 535 76 116 23 131 34 100 67 -12 13 -37 33 -55
44 -34 21 -493 229 -505 229 -4 0 -14 -10 -21 -22z m282 -185 c110 -42 121
-76 29 -93 -24 -5 -94 -12 -155 -16 l-110 -7 -7 65 c-6 57 -2 107 11 130 3 7
58 -12 232 -79z m182 -84 c-10 -23 -10 -23 -10 7 -1 17 2 34 7 38 11 12 14
-18 3 -45z m86 4 c5 -13 -48 -36 -59 -25 -5 5 -4 20 2 36 10 26 12 27 32 14
12 -8 23 -19 25 -25z"/>
<path d="M2080 1290 c0 -11 5 -20 10 -20 6 0 10 9 10 20 0 11 -4 20 -10 20 -5
0 -10 -9 -10 -20z"/>
<path d="M1687 1318 c16 -8 21 -18 18 -44 -3 -43 18 -41 23 1 4 31 -18 56 -47
54 -11 0 -9 -4 6 -11z"/>
<path d="M495 2327 c-4 -10 -5 -21 -1 -24 10 -10 18 4 13 24 -4 17 -4 17 -12
0z"/>
<path d="M690 1300 c0 -5 5 -10 10 -10 6 0 10 5 10 10 0 6 -4 10 -10 10 -5 0
-10 -4 -10 -10z"/>
<path d="M1040 1001 c0 -11 5 -23 10 -26 6 -3 10 3 10 14 0 11 -4 23 -10 26
-5 3 -10 -3 -10 -14z"/>
<path d="M11083 3139 c-78 -13 -185 -53 -282 -105 -261 -141 -410 -290 -527
-529 -77 -157 -110 -269 -125 -423 -24 -245 7 -422 111 -637 137 -283 302
-446 611 -601 48 -24 90 -48 94 -54 3 -5 19 -10 35 -10 16 0 68 -10 117 -21
96 -23 276 -30 393 -15 202 26 455 161 631 336 189 188 273 357 335 669 58
289 -43 672 -244 928 -190 243 -432 400 -707 458 -78 16 -353 19 -442 4z m330
-26 c-7 -2 -19 -2 -25 0 -7 3 -2 5 12 5 14 0 19 -2 13 -5z m-53 -58 c0 -23
-29 -32 -130 -40 -162 -12 -315 -65 -456 -158 -219 -145 -347 -306 -439 -552
-73 -193 -72 -456 2 -680 58 -175 120 -280 239 -405 139 -145 264 -226 469
-301 l90 -34 205 0 205 0 95 33 c190 67 328 160 459 313 79 91 120 158 171
276 66 155 75 204 74 413 -1 166 -4 195 -27 283 -80 299 -294 570 -549 695
-105 51 -284 112 -330 112 -43 0 -71 19 -62 43 6 16 14 17 63 11 115 -14 288
-73 393 -135 126 -74 295 -227 365 -329 51 -75 132 -241 154 -314 39 -131 50
-208 51 -346 0 -160 -21 -298 -64 -420 -40 -112 -64 -158 -137 -260 -34 -47
-61 -88 -61 -92 0 -19 22 -4 65 45 l47 52 -33 -50 c-35 -54 -78 -105 -90 -105
-4 0 -5 9 -2 20 3 11 2 20 -1 20 -4 0 -35 -27 -71 -60 -111 -103 -221 -165
-416 -232 l-124 -42 -160 1 c-139 0 -173 4 -259 26 -104 28 -291 112 -373 168
-61 42 -221 196 -272 263 -89 116 -177 304 -206 441 -21 99 -24 338 -6 445 43
250 170 472 368 645 196 172 422 262 661 264 74 1 92 -2 92 -14z m93 -116 c86
-12 137 -27 137 -40 0 -12 -32 -12 -65 1 -23 9 -27 7 -36 -17 -5 -15 -19 -86
-30 -157 -19 -127 -38 -194 -25 -88 9 70 -9 60 -24 -13 -10 -47 -25 -75 -34
-64 -2 2 7 67 20 144 13 77 23 158 21 180 l-2 40 -65 3 c-70 3 -212 -12 -272
-30 -21 -6 -46 -20 -55 -30 -17 -19 -16 -24 18 -121 20 -56 57 -154 81 -217
25 -64 48 -129 51 -145 l7 -30 -14 25 c-8 14 -28 66 -45 115 -18 50 -36 94
-42 100 -19 19 -8 -34 35 -160 24 -72 47 -145 50 -162 4 -18 12 -35 17 -38 10
-7 -7 -45 -21 -45 -4 0 -13 24 -20 53 -14 66 -125 407 -144 446 -9 16 -20 51
-26 77 -6 27 -18 56 -27 66 -20 22 -11 33 46 63 97 48 302 68 464 44z m207
-69 c14 -11 20 -20 14 -20 -7 0 -22 9 -35 20 -31 25 -12 26 21 0z m-770 -42
c-64 -51 -245 -176 -249 -172 -12 12 110 117 182 158 80 45 115 53 67 14z
m340 13 c0 -11 -4 -23 -10 -26 -6 -4 -10 5 -10 19 0 14 5 26 10 26 6 0 10 -9
10 -19z m622 -68 c80 -53 208 -185 274 -285 72 -108 155 -335 154 -422 -1 -46
-16 -14 -35 75 -10 41 -23 84 -31 96 -12 19 -17 20 -56 11 -24 -6 -50 -17 -59
-24 -8 -8 -20 -14 -26 -14 -6 0 -58 -22 -117 -50 -102 -48 -144 -61 -132 -41
3 5 18 12 33 15 42 11 163 68 163 77 0 13 0 13 -102 -25 -215 -79 -350 -114
-333 -87 3 6 45 22 93 36 48 15 160 56 249 91 89 35 170 64 180 64 23 0 63 35
63 56 0 50 -185 304 -221 304 -14 0 -142 -121 -266 -249 -56 -58 -102 -101
-102 -95 -2 23 81 135 161 220 46 49 99 109 118 133 l34 44 -39 34 c-22 19
-64 49 -94 67 -66 38 -82 66 -19 34 23 -12 73 -41 110 -65z m-687 27 c4 -6 -5
-10 -20 -10 -15 0 -24 4 -20 10 3 6 12 10 20 10 8 0 17 -4 20 -10z m1026 -125
c5 -11 -13 5 -40 35 -28 30 -51 60 -51 65 1 12 76 -72 91 -100z m-471 75 c0
-5 -2 -10 -4 -10 -3 0 -8 5 -11 10 -3 6 -1 10 4 10 6 0 11 -4 11 -10z m-1120
-159 c-6 -16 -9 -34 -6 -40 4 -6 41 -38 84 -72 85 -69 102 -86 102 -106 0 -34
-34 -20 -127 51 -54 42 -106 76 -115 76 -36 0 -163 -303 -156 -373 3 -31 4
-32 83 -47 70 -13 80 -18 83 -37 2 -16 -2 -23 -13 -23 -8 0 -20 10 -25 23 l-9
22 0 -22 c-1 -24 -34 -33 -46 -13 -10 15 -71 12 -85 -5 -14 -17 -8 -121 16
-253 17 -94 31 -132 51 -132 21 0 227 78 336 126 110 50 133 55 117 24 -6 -11
-17 -20 -24 -20 -19 0 -153 -67 -161 -80 -6 -9 2 -10 26 -5 74 16 9 -15 -131
-63 -88 -29 -146 -54 -148 -63 -7 -40 206 -329 243 -329 14 0 85 77 85 91 0 5
-8 5 -17 2 -31 -12 4 23 36 37 16 6 61 52 101 101 39 49 75 89 79 89 5 0 19
19 31 43 29 55 89 137 101 137 27 0 -25 -99 -90 -170 -49 -53 -151 -196 -151
-212 0 -6 9 -3 20 7 37 33 21 8 -45 -71 -36 -44 -68 -90 -72 -103 -8 -31 12
-46 140 -111 108 -54 204 -87 218 -73 10 10 66 381 79 527 5 54 12 101 15 104
3 3 12 -1 19 -9 12 -12 11 -31 -5 -129 -28 -176 -47 -340 -37 -340 4 0 8 5 8
11 0 26 72 407 81 428 18 43 31 9 15 -37 -22 -62 -105 -577 -95 -587 8 -8 311
14 351 25 21 6 40 15 43 20 7 12 -61 215 -144 430 -33 85 -58 156 -56 158 10
11 27 -19 80 -145 31 -76 62 -144 68 -151 20 -25 18 -2 -8 73 -26 76 -28 109
-4 63 7 -12 43 -106 80 -206 37 -101 70 -186 72 -189 8 -7 91 32 143 68 57 39
194 167 194 181 0 6 -25 33 -55 61 -35 32 -54 56 -50 65 3 8 -3 21 -15 29 -37
26 -275 236 -297 262 -21 25 -30 51 -17 51 3 0 15 -11 26 -25 42 -53 427 -375
449 -375 17 0 49 40 79 100 27 54 50 77 50 50 0 -32 -89 -173 -159 -253 -124
-142 -227 -210 -399 -267 -164 -54 -264 -67 -394 -51 -423 52 -761 354 -880
788 -27 101 -30 329 -5 439 37 163 92 279 190 402 52 66 68 74 47 23z m1654
-7 c5 -14 4 -15 -9 -4 -17 14 -19 20 -6 20 5 0 12 -7 15 -16z m-113 -46 c11
-21 11 -22 -4 -9 -10 7 -17 17 -17 22 0 15 9 10 21 -13z m-1421 -8 c0 -5 -7
-10 -15 -10 -8 0 -15 5 -15 10 0 6 7 10 15 10 8 0 15 -4 15 -10z m69 1 c11 -7
9 -10 -8 -16 -26 -8 -49 4 -30 16 17 11 21 11 38 0z m161 -1 c0 -5 -7 -10 -16
-10 -8 0 -12 5 -9 10 3 6 10 10 16 10 5 0 9 -4 9 -10z m634 -9 c6 -9 -43 -90
-67 -110 -15 -12 -17 -11 -17 6 0 24 19 83 33 101 11 14 43 16 51 3z m396 -41
c21 -11 60 -71 60 -92 0 -29 -188 -95 -221 -77 -10 5 -19 13 -19 18 0 23 127
161 148 161 7 0 22 -4 32 -10z m-1530 -10 c0 -5 -5 -10 -11 -10 -5 0 -7 5 -4
10 3 6 8 10 11 10 2 0 4 -4 4 -10z m910 -126 c-12 -80 -23 -114 -33 -98 -5 9
17 167 30 214 7 25 7 25 11 -5 2 -16 -1 -66 -8 -111z m989 71 c10 -24 22 -54
26 -67 5 -20 4 -21 -5 -5 -22 34 -60 128 -50 122 5 -3 18 -25 29 -50z m-133
-6 c14 -28 23 -53 20 -56 -5 -5 -30 39 -46 82 -16 42 -2 28 26 -26z m-986 16
c0 -14 -4 -25 -10 -25 -5 0 -10 11 -10 25 0 14 5 25 10 25 6 0 10 -11 10 -25z
m-210 -78 c-21 -56 -40 -81 -40 -54 0 18 28 87 42 105 20 23 19 5 -2 -51z
m-629 20 c-10 -9 -11 -8 -5 6 3 10 9 15 12 12 3 -3 0 -11 -7 -18z m540 -18
c-8 -21 -10 -22 -16 -6 -4 10 -2 24 6 33 17 20 23 5 10 -27z m-91 -11 c0 -6
-7 -5 -15 2 -8 7 -15 17 -15 22 0 6 7 5 15 -2 8 -7 15 -17 15 -22z m-603 -10
c-3 -8 -6 -5 -6 6 -1 11 2 17 5 13 3 -3 4 -12 1 -19z m1163 -45 c0 -38 -3 -54
-10 -47 -9 9 -3 104 6 104 2 0 4 -26 4 -57z m-579 20 c13 -16 12 -17 -3 -4
-10 7 -18 15 -18 17 0 8 8 3 21 -13z m126 -35 c37 -28 92 -62 121 -75 56 -26
63 -37 33 -53 -16 -8 -36 4 -125 75 -91 73 -121 105 -102 105 3 0 36 -23 73
-52z m158 -10 c7 -37 -1 -48 -20 -29 -6 5 -18 11 -27 13 -17 3 -16 5 3 37 23
38 34 33 44 -21z m687 30 c-12 -12 -35 -1 -27 12 3 5 13 6 21 3 10 -4 12 -9 6
-15z m-1429 -3 c-3 -9 -8 -14 -10 -11 -3 3 -2 9 2 15 9 16 15 13 8 -4z m857
-11 c0 -8 -4 -12 -10 -9 -5 3 -10 13 -10 21 0 8 5 12 10 9 6 -3 10 -13 10 -21z
m321 -17 c-13 -13 -26 -3 -16 12 3 6 11 8 17 5 6 -4 6 -10 -1 -17z m-512 -131
c19 -20 32 -38 30 -41 -3 -2 -41 32 -85 77 -61 63 -67 72 -29 41 28 -23 65
-57 84 -77z m535 60 c-10 -20 -24 -36 -31 -36 -15 0 -12 7 21 52 26 37 31 29
10 -16z m-707 28 c-3 -3 -12 -4 -19 -1 -8 3 -5 6 6 6 11 1 17 -2 13 -5z m646
-9 c-6 -18 -34 -16 -41 3 -2 7 6 12 22 12 19 0 24 -4 19 -15z m-553 -55 c0 -5
-2 -10 -4 -10 -3 0 -8 5 -11 10 -3 6 -1 10 4 10 6 0 11 -4 11 -10z m200 -20
c-11 -11 -23 -20 -27 -20 -3 0 2 9 12 20 10 11 22 20 27 20 4 0 -1 -9 -12 -20z
m1016 -15 c10 -40 -1 -52 -57 -64 -29 -7 -56 -17 -60 -22 -4 -6 -2 -26 4 -45
12 -40 4 -53 -24 -36 -11 7 -28 11 -37 8 -27 -8 -127 19 -129 35 -5 24 8 33
125 92 126 64 168 71 178 32z m-955 -8 c-1 -12 -15 -9 -19 4 -3 6 1 10 8 8 6
-3 11 -8 11 -12z m585 -16 c-7 -11 -46 -21 -46 -12 0 13 13 21 32 21 11 0 17
-4 14 -9z m-66 -20 c0 -8 -89 -51 -105 -51 -21 0 7 25 45 41 52 21 60 22 60
10z m-1125 -36 c0 -10 -6 -20 -12 -22 -8 -3 -13 5 -13 22 0 17 5 25 13 23 6
-3 12 -13 12 -23z m711 -1 c9 -36 -8 -51 -42 -35 l-27 12 23 24 c30 32 38 31
46 -1z m134 -4 c41 -29 38 -42 -6 -24 -21 9 -48 13 -64 9 -31 -7 -45 6 -36 32
8 21 66 12 106 -17z m-442 -6 c17 -3 32 -9 32 -14 0 -20 -71 -20 -184 0 -66
11 -122 23 -125 26 -6 5 226 -4 277 -12z m1279 -143 c-10 -162 -42 -311 -68
-311 -12 0 -12 0 13 96 21 81 21 84 3 104 -11 12 -22 17 -29 11 -6 -5 -41 -4
-81 2 -64 10 -67 12 -35 17 52 10 26 17 -165 45 -212 32 -284 46 -290 56 -11
17 16 18 77 4 34 -8 144 -26 243 -40 156 -22 183 -29 199 -48 13 -15 20 -18
23 -9 3 7 23 12 49 12 l44 0 0 103 c1 80 3 98 12 83 7 -13 9 -55 5 -125z
m-446 114 c0 -13 -41 -19 -41 -7 0 11 20 22 33 18 5 -1 8 -6 8 -11z m-411 -15
c12 -8 11 -10 -7 -10 -13 0 -23 5 -23 10 0 13 11 13 30 0z m722 1 c21 11 32
-6 26 -38 -7 -37 -88 -22 -88 17 0 20 20 32 34 19 5 -4 17 -4 28 2z m-1282
-11 c21 -7 19 -8 -15 -8 -22 0 -49 3 -60 8 -16 7 -13 9 15 8 19 0 46 -4 60 -8z
m-255 -30 c3 -6 0 -10 -7 -10 -15 0 -38 19 -38 32 0 10 36 -8 45 -22z m966 17
c-1 -12 -15 -9 -19 4 -3 6 1 10 8 8 6 -3 11 -8 11 -12z m-573 -13 c18 -4 22
-11 22 -42 0 -30 -6 -42 -33 -63 -30 -24 -77 -43 -77 -32 0 3 18 26 41 50 45
49 42 66 -12 78 -16 4 -29 10 -29 14 0 7 40 5 88 -5z m311 -28 c-15 -25 -20
-46 -16 -66 4 -16 2 -32 -3 -35 -14 -9 -23 57 -12 86 11 27 41 63 49 56 2 -3
-6 -21 -18 -41z m-859 26 c0 -8 -43 -32 -55 -32 -11 0 -4 29 8 33 20 9 47 8
47 -1z m1015 -35 c17 -24 20 -67 5 -67 -5 0 -14 -18 -20 -40 -10 -37 -13 -40
-38 -34 -63 15 -81 75 -42 139 16 27 24 31 50 27 17 -2 37 -14 45 -25z m855
12 c0 -5 -4 -9 -10 -9 -5 0 -10 7 -10 16 0 8 5 12 10 9 6 -3 10 -10 10 -16z
m117 -61 c-2 -13 -4 -3 -4 22 0 25 2 35 4 23 2 -13 2 -33 0 -45z m-1639 30
c19 -16 15 -27 -12 -34 -34 -8 -66 4 -66 26 0 30 44 34 78 8z m-150 -11 c2
-12 -1 -15 -12 -11 -19 7 -22 38 -3 32 6 -3 13 -12 15 -21z m462 13 c0 -5 -5
-10 -11 -10 -5 0 -7 5 -4 10 3 6 8 10 11 10 2 0 4 -4 4 -10z m667 -51 c35 -6
63 -15 63 -21 0 -5 -10 -6 -22 -2 -13 4 -63 13 -113 19 -74 10 -81 13 -41 14
27 0 78 -4 113 -10z m-513 -67 c10 -13 15 -26 11 -30 -7 -7 -75 65 -75 80 0
12 42 -21 64 -50z m706 38 c24 -8 24 -8 -5 -8 -16 0 -41 4 -55 8 -24 8 -24 8
5 8 17 0 41 -4 55 -8z m-1390 -20 c12 -23 6 -40 -16 -40 -8 0 -37 -11 -64 -25
-62 -31 -68 -31 -80 1 -12 29 2 56 24 48 7 -3 24 4 37 15 32 27 85 27 99 1z
m170 10 c0 -5 -7 -10 -15 -10 -8 0 -15 5 -15 10 0 6 7 10 15 10 8 0 15 -4 15
-10z m308 -11 c2 -13 -9 -18 -52 -23 -31 -3 -90 -20 -132 -36 -120 -48 -97
-28 33 28 122 53 146 58 151 31z m-688 -186 c0 -2 -4 -3 -8 -3 -10 0 -42 110
-41 137 0 13 47 -116 49 -134z m1580 107 c85 -13 160 -24 166 -25 32 -9 -47
-195 -82 -195 -7 0 -19 9 -26 19 -8 11 -43 41 -78 67 -77 56 -194 153 -198
165 -2 4 12 4 30 -1 18 -4 103 -18 188 -30z m-450 16 c0 -3 -4 -8 -10 -11 -5
-3 -10 -1 -10 4 0 6 5 11 10 11 6 0 10 -2 10 -4z m789 -57 c-13 -62 -34 -105
-24 -49 11 59 26 112 31 107 2 -2 -1 -28 -7 -58z m126 4 c-10 -40 -17 -20 -9
23 5 24 9 32 12 21 2 -10 1 -30 -3 -44z m-2218 15 c-3 -8 -6 -5 -6 6 -1 11 2
17 5 13 3 -3 4 -12 1 -19z m1038 12 c3 -5 1 -10 -4 -10 -6 0 -11 5 -11 10 0 6
2 10 4 10 3 0 8 -4 11 -10z m-347 -12 c-5 -16 -48 -24 -48 -9 0 8 17 16 43 20
5 0 7 -5 5 -11z m690 -17 c32 -27 27 -35 -8 -14 -16 9 -30 21 -30 25 0 13 13
9 38 -11z m-428 -21 c-12 -22 -92 -92 -98 -86 -7 8 91 116 100 110 4 -3 4 -14
-2 -24z m-350 0 c0 -5 -15 -10 -32 -9 -28 0 -30 2 -13 9 28 12 45 12 45 0z
m695 -114 c8 -27 13 -52 10 -54 -6 -6 -43 80 -51 116 -5 26 -5 26 11 7 8 -11
22 -42 30 -69z m160 74 c3 -5 2 -10 -4 -10 -5 0 -13 5 -16 10 -3 6 -2 10 4 10
5 0 13 -4 16 -10z m-801 -54 c-16 -18 -48 -60 -72 -92 -23 -33 -54 -72 -68
-89 l-25 -30 -39 45 c-45 51 -47 58 -23 107 17 38 61 62 110 64 15 0 48 6 73
13 70 21 74 19 44 -18z m-580 -78 c22 -46 27 -72 10 -56 -8 9 -45 108 -39 108
2 0 15 -23 29 -52z m329 22 c-3 -11 -9 -20 -14 -20 -10 0 -12 33 -3 43 12 12
22 -3 17 -23z m1145 -97 c75 -59 139 -108 141 -110 8 -6 -63 -73 -108 -104
-36 -23 -47 -27 -57 -17 -6 7 -30 69 -53 138 -23 69 -49 139 -57 157 -15 33
-17 43 -9 43 3 0 67 -48 143 -107z m437 7 c-14 -29 -29 -50 -32 -47 -3 3 7 28
23 56 36 66 43 59 9 -9z m-760 -135 c36 -99 67 -184 68 -190 1 -5 -11 -10 -27
-10 -28 0 -30 3 -44 63 -12 56 -16 63 -35 60 -20 -3 -22 -10 -25 -70 l-3 -68
-31 0 c-30 0 -30 1 -24 38 3 20 16 110 28 199 12 89 23 161 25 160 1 -1 32
-83 68 -182z m-360 18 c-20 -164 -24 -183 -38 -183 -19 0 -134 57 -142 70 -10
16 179 259 192 246 2 -2 -3 -62 -12 -133z m-120 117 c-3 -5 -11 -10 -16 -10
-6 0 -7 5 -4 10 3 6 11 10 16 10 6 0 7 -4 4 -10z m1375 -14 c0 -3 -4 -8 -10
-11 -5 -3 -10 -1 -10 4 0 6 5 11 10 11 6 0 10 -2 10 -4z m-1764 -111 c33 -38
66 -79 74 -90 32 -45 -31 19 -84 85 -95 117 -88 121 10 5z m1548 1 c-9 -15
-19 -24 -22 -22 -2 3 3 17 12 32 10 14 20 23 23 21 2 -3 -3 -17 -13 -31z m158
2 c-7 -7 -12 -8 -12 -2 0 14 12 26 19 19 2 -3 -1 -11 -7 -17z m-272 -129 c-78
-72 -168 -135 -235 -164 -79 -35 -81 -24 -3 15 73 37 163 100 228 158 25 23
50 41 55 41 6 0 -15 -23 -45 -50z m-1255 -50 l30 -32 -30 20 c-16 12 -39 31
-50 43 l-20 23 20 -11 c11 -6 34 -25 50 -43z m1340 -41 c-8 -13 -44 -45 -80
-73 -36 -27 -82 -62 -101 -77 -59 -45 -341 -140 -408 -137 -11 0 4 7 34 15
191 51 362 124 430 185 40 35 133 109 138 109 1 0 -4 -10 -13 -22z m-671 -4
c9 -24 7 -74 -3 -74 -8 0 -21 47 -21 76 0 19 16 18 24 -2z m-582 -159 c58 -30
111 -55 119 -55 9 0 24 -7 35 -16 18 -14 18 -15 -6 -8 -79 20 -340 164 -340
187 0 4 20 -6 44 -22 24 -17 91 -55 148 -86z m114 89 c22 -9 34 -19 27 -21 -6
-2 -29 5 -50 16 -46 24 -31 27 23 5z m157 -61 c-7 -2 -19 -2 -25 0 -7 3 -2 5
12 5 14 0 19 -2 13 -5z m502 2 c-39 -15 -125 -32 -125 -25 0 10 71 28 110 28
14 0 21 -1 15 -3z m-212 -32 c-29 -2 -77 -2 -105 0 -29 2 -6 3 52 3 58 0 81
-1 53 -3z m-277 -111 c-10 -2 -22 0 -28 6 -6 6 0 7 19 4 21 -5 23 -7 9 -10z
m199 -22 c4 -6 -8 -10 -29 -10 -19 0 -38 5 -41 10 -4 6 8 10 29 10 19 0 38 -4
41 -10z"/>
<path d="M11420 1800 c0 -5 5 -10 10 -10 6 0 10 5 10 10 0 6 -4 10 -10 10 -5
0 -10 -4 -10 -10z"/>
<path d="M9912 1755 c0 -16 2 -22 5 -12 2 9 2 23 0 30 -3 6 -5 -1 -5 -18z"/>
<path d="M12460 1284 c0 -8 5 -12 10 -9 6 3 10 10 10 16 0 5 -4 9 -10 9 -5 0
-10 -7 -10 -16z"/>
<path d="M12397 1183 c-24 -38 -78 -110 -121 -161 -73 -87 -95 -126 -49 -85
78 70 252 313 224 313 -6 0 -30 -30 -54 -67z"/>
<path d="M12090 780 c-8 -5 -11 -12 -7 -16 4 -4 15 0 24 9 18 18 8 23 -17 7z"/>
<path d="M3740 2879 c0 -5 5 -7 10 -4 6 3 10 8 10 11 0 2 -4 4 -10 4 -5 0 -10
-5 -10 -11z"/>
<path d="M5460 2670 c0 -5 5 -10 10 -10 6 0 10 5 10 10 0 6 -4 10 -10 10 -5 0
-10 -4 -10 -10z"/>
<path d="M9236 2674 c-9 -24 17 -48 43 -39 25 8 28 30 4 39 -10 3 -23 8 -29
11 -6 3 -15 -2 -18 -11z"/>
<path d="M9350 2679 c0 -5 5 -7 10 -4 6 3 10 8 10 11 0 2 -4 4 -10 4 -5 0 -10
-5 -10 -11z"/>
<path d="M4078 2499 c-27 -15 -21 -27 16 -35 41 -7 75 7 54 23 -22 18 -52 23
-70 12z"/>
<path d="M8250 1840 c0 -5 16 -12 35 -16 66 -12 33 -29 -63 -32 -96 -3 -122
-17 -49 -27 23 -3 173 -10 332 -15 652 -22 722 -23 729 -12 10 17 -31 20 -423
33 -201 6 -374 14 -386 19 -12 5 -27 5 -34 0 -15 -9 -51 -2 -51 10 0 14 62 20
206 20 144 0 190 12 92 24 -84 10 -388 7 -388 -4z"/>
<path d="M3620 1800 c38 -12 470 -12 470 0 0 6 -89 10 -247 9 -140 -1 -237 -4
-223 -9z"/>
<path d="M3950 1153 c-460 -3 -587 -10 -483 -26 37 -6 796 -31 958 -32 l80 0
0 30 c0 25 -4 30 -25 30 -14 0 -252 -1 -530 -2z"/>
<path d="M3820 961 c0 -17 12 -19 155 -25 126 -6 129 -6 105 11 -20 14 -50 19
-142 22 -84 2 -118 0 -118 -8z"/>
<path d="M4152 931 c-11 -7 -11 -9 2 -14 19 -7 46 1 46 14 0 11 -31 11 -48 0z"/>
<path d="M8510 911 c-32 -7 -30 -8 30 -14 63 -6 353 -15 670 -21 163 -4 295 2
286 11 -5 6 -160 11 -756 27 -107 3 -211 1 -230 -3z"/>
<path d="M8430 850 c0 -5 5 -12 11 -16 13 -8 218 -18 694 -34 182 -6 467 -15
634 -21 194 -6 307 -7 313 -1 13 13 -79 18 -632 37 -557 19 -924 34 -977 40
-24 3 -43 0 -43 -5z"/>
<path d="M8411 771 c-11 -7 -11 -10 0 -17 16 -10 1014 -53 1212 -52 75 0 139
4 142 9 3 4 -4 10 -17 13 -26 5 -436 22 -878 36 -168 5 -336 12 -375 15 -38 3
-76 1 -84 -4z"/>
<path d="M9780 711 c0 -18 36 -21 241 -21 206 0 273 11 142 23 -102 10 -383 8
-383 -2z"/>
<path d="M530 699 c0 -5 5 -7 10 -4 6 3 10 8 10 11 0 2 -4 4 -10 4 -5 0 -10
-5 -10 -11z"/>
<path d="M8528 681 c12 -6 165 -15 340 -22 174 -6 321 -11 326 -12 5 -1 10 3
13 9 6 18 -79 24 -402 29 -204 4 -293 2 -277 -4z"/>
<path d="M9240 663 c0 -18 41 -23 210 -23 105 0 161 3 154 10 -13 13 -364 26
-364 13z"/>
<path d="M9640 640 c0 -13 70 -13 90 0 11 7 0 10 -37 10 -29 0 -53 -4 -53 -10z"/>
<path d="M9878 628 c9 -9 15 -9 24 0 9 9 7 12 -12 12 -19 0 -21 -3 -12 -12z"/>
<path d="M8737 611 c25 -11 456 -30 833 -36 167 -3 254 -1 235 4 -70 22 -1115
52 -1068 32z"/>
<path d="M9861 582 c-23 -16 4 -23 103 -29 95 -6 137 0 120 16 -13 13 -206 23
-223 13z"/>
<path d="M515 550 c3 -5 10 -10 16 -10 5 0 9 5 9 10 0 6 -7 10 -16 10 -8 0
-12 -4 -9 -10z"/>
<path d="M565 477 c-4 -10 -5 -21 -1 -24 10 -10 18 4 13 24 -4 17 -4 17 -12 0z"/>
</g>
</svg>
